<?xml version="1.0" encoding="utf-8" standalone="no"?>
<!DOCTYPE svg PUBLIC "-//W3C//DTD SVG 1.1//EN"
  "http://www.w3.org/Graphics/SVG/1.1/DTD/svg11.dtd">
<svg xmlns:xlink="http://www.w3.org/1999/xlink" width="700.775pt" height="414.32875pt" viewBox="0 0 700.775 414.32875" xmlns="http://www.w3.org/2000/svg" version="1.1">
 <metadata>
  <rdf:RDF xmlns:dc="http://purl.org/dc/elements/1.1/" xmlns:cc="http://creativecommons.org/ns#" xmlns:rdf="http://www.w3.org/1999/02/22-rdf-syntax-ns#">
   <cc:Work>
    <dc:type rdf:resource="http://purl.org/dc/dcmitype/StillImage"/>
    <dc:date>2023-12-04T12:40:14.369816</dc:date>
    <dc:format>image/svg+xml</dc:format>
    <dc:creator>
     <cc:Agent>
      <dc:title>Matplotlib v3.7.2, https://matplotlib.org/</dc:title>
     </cc:Agent>
    </dc:creator>
   </cc:Work>
  </rdf:RDF>
 </metadata>
 <defs>
  <style type="text/css">*{stroke-linejoin: round; stroke-linecap: butt}</style>
 </defs>
 <g id="figure_1">
  <g id="patch_1">
   <path d="M 0 414.32875 
L 700.775 414.32875 
L 700.775 0 
L 0 0 
z
" style="fill: #ffffff"/>
  </g>
  <g id="axes_1">
   <g id="patch_2">
    <path d="M 75.225 354.15875 
L 693.575 354.15875 
L 693.575 13.27875 
L 75.225 13.27875 
z
" style="fill: #ffffff"/>
   </g>
   <g id="matplotlib.axis_1">
    <g id="xtick_1">
     <g id="line2d_1">
      <defs>
       <path id="m6c5c367643" d="M 0 0 
L 0 3.5 
" style="stroke: #000000; stroke-width: 0.8"/>
      </defs>
      <g>
       <use xlink:href="#m6c5c367643" x="101.304064" y="354.15875" style="stroke: #000000; stroke-width: 0.8"/>
      </g>
     </g>
     <g id="text_1">
      <text style="font: 16px 'DejaVu Sans', 'Bitstream Vera Sans', 'Computer Modern Sans Serif', 'Lucida Grande', 'Verdana', 'Geneva', 'Lucid', 'Arial', 'Helvetica', 'Avant Garde', sans-serif; text-anchor: middle" x="101.304064" y="373.31625" transform="rotate(-0 101.304064 373.31625)">0.15</text>
     </g>
    </g>
    <g id="xtick_2">
     <g id="line2d_2">
      <g>
       <use xlink:href="#m6c5c367643" x="234.885302" y="354.15875" style="stroke: #000000; stroke-width: 0.8"/>
      </g>
     </g>
     <g id="text_2">
      <text style="font: 16px 'DejaVu Sans', 'Bitstream Vera Sans', 'Computer Modern Sans Serif', 'Lucida Grande', 'Verdana', 'Geneva', 'Lucid', 'Arial', 'Helvetica', 'Avant Garde', sans-serif; text-anchor: middle" x="234.885302" y="373.31625" transform="rotate(-0 234.885302 373.31625)">0.20</text>
     </g>
    </g>
    <g id="xtick_3">
     <g id="line2d_3">
      <g>
       <use xlink:href="#m6c5c367643" x="368.46654" y="354.15875" style="stroke: #000000; stroke-width: 0.8"/>
      </g>
     </g>
     <g id="text_3">
      <text style="font: 16px 'DejaVu Sans', 'Bitstream Vera Sans', 'Computer Modern Sans Serif', 'Lucida Grande', 'Verdana', 'Geneva', 'Lucid', 'Arial', 'Helvetica', 'Avant Garde', sans-serif; text-anchor: middle" x="368.46654" y="373.31625" transform="rotate(-0 368.46654 373.31625)">0.25</text>
     </g>
    </g>
    <g id="xtick_4">
     <g id="line2d_4">
      <g>
       <use xlink:href="#m6c5c367643" x="502.047778" y="354.15875" style="stroke: #000000; stroke-width: 0.8"/>
      </g>
     </g>
     <g id="text_4">
      <text style="font: 16px 'DejaVu Sans', 'Bitstream Vera Sans', 'Computer Modern Sans Serif', 'Lucida Grande', 'Verdana', 'Geneva', 'Lucid', 'Arial', 'Helvetica', 'Avant Garde', sans-serif; text-anchor: middle" x="502.047778" y="373.31625" transform="rotate(-0 502.047778 373.31625)">0.30</text>
     </g>
    </g>
    <g id="xtick_5">
     <g id="line2d_5">
      <g>
       <use xlink:href="#m6c5c367643" x="635.629016" y="354.15875" style="stroke: #000000; stroke-width: 0.8"/>
      </g>
     </g>
     <g id="text_5">
      <text style="font: 16px 'DejaVu Sans', 'Bitstream Vera Sans', 'Computer Modern Sans Serif', 'Lucida Grande', 'Verdana', 'Geneva', 'Lucid', 'Arial', 'Helvetica', 'Avant Garde', sans-serif; text-anchor: middle" x="635.629016" y="373.31625" transform="rotate(-0 635.629016 373.31625)">0.35</text>
     </g>
    </g>
    <g id="text_6">
     <text style="font: 16px 'DejaVu Sans', 'Bitstream Vera Sans', 'Computer Modern Sans Serif', 'Lucida Grande', 'Verdana', 'Geneva', 'Lucid', 'Arial', 'Helvetica', 'Avant Garde', sans-serif; text-anchor: middle" x="384.4" y="403.80125" transform="rotate(-0 384.4 403.80125)">Cosine Similarity Score</text>
    </g>
   </g>
   <g id="matplotlib.axis_2">
    <g id="ytick_1">
     <g id="line2d_6">
      <path d="M 75.225 354.15875 
L 693.575 354.15875 
" clip-path="url(#pec6e374273)" style="fill: none; stroke: #b0b0b0; stroke-width: 0.8; stroke-linecap: square"/>
     </g>
     <g id="line2d_7">
      <defs>
       <path id="m5bc019a826" d="M 0 0 
L -3.5 0 
" style="stroke: #000000; stroke-width: 0.8"/>
      </defs>
      <g>
       <use xlink:href="#m5bc019a826" x="75.225" y="354.15875" style="stroke: #000000; stroke-width: 0.8"/>
      </g>
     </g>
     <g id="text_7">
      <text style="font: 16px 'DejaVu Sans', 'Bitstream Vera Sans', 'Computer Modern Sans Serif', 'Lucida Grande', 'Verdana', 'Geneva', 'Lucid', 'Arial', 'Helvetica', 'Avant Garde', sans-serif; text-anchor: end" x="68.225" y="360.2375" transform="rotate(-0 68.225 360.2375)">50</text>
     </g>
    </g>
    <g id="ytick_2">
     <g id="line2d_8">
      <path d="M 75.225 285.98275 
L 693.575 285.98275 
" clip-path="url(#pec6e374273)" style="fill: none; stroke: #b0b0b0; stroke-width: 0.8; stroke-linecap: square"/>
     </g>
     <g id="line2d_9">
      <g>
       <use xlink:href="#m5bc019a826" x="75.225" y="285.98275" style="stroke: #000000; stroke-width: 0.8"/>
      </g>
     </g>
     <g id="text_8">
      <text style="font: 16px 'DejaVu Sans', 'Bitstream Vera Sans', 'Computer Modern Sans Serif', 'Lucida Grande', 'Verdana', 'Geneva', 'Lucid', 'Arial', 'Helvetica', 'Avant Garde', sans-serif; text-anchor: end" x="68.225" y="292.0615" transform="rotate(-0 68.225 292.0615)">60</text>
     </g>
    </g>
    <g id="ytick_3">
     <g id="line2d_10">
      <path d="M 75.225 217.80675 
L 693.575 217.80675 
" clip-path="url(#pec6e374273)" style="fill: none; stroke: #b0b0b0; stroke-width: 0.8; stroke-linecap: square"/>
     </g>
     <g id="line2d_11">
      <g>
       <use xlink:href="#m5bc019a826" x="75.225" y="217.80675" style="stroke: #000000; stroke-width: 0.8"/>
      </g>
     </g>
     <g id="text_9">
      <text style="font: 16px 'DejaVu Sans', 'Bitstream Vera Sans', 'Computer Modern Sans Serif', 'Lucida Grande', 'Verdana', 'Geneva', 'Lucid', 'Arial', 'Helvetica', 'Avant Garde', sans-serif; text-anchor: end" x="68.225" y="223.8855" transform="rotate(-0 68.225 223.8855)">70</text>
     </g>
    </g>
    <g id="ytick_4">
     <g id="line2d_12">
      <path d="M 75.225 149.63075 
L 693.575 149.63075 
" clip-path="url(#pec6e374273)" style="fill: none; stroke: #b0b0b0; stroke-width: 0.8; stroke-linecap: square"/>
     </g>
     <g id="line2d_13">
      <g>
       <use xlink:href="#m5bc019a826" x="75.225" y="149.63075" style="stroke: #000000; stroke-width: 0.8"/>
      </g>
     </g>
     <g id="text_10">
      <text style="font: 16px 'DejaVu Sans', 'Bitstream Vera Sans', 'Computer Modern Sans Serif', 'Lucida Grande', 'Verdana', 'Geneva', 'Lucid', 'Arial', 'Helvetica', 'Avant Garde', sans-serif; text-anchor: end" x="68.225" y="155.7095" transform="rotate(-0 68.225 155.7095)">80</text>
     </g>
    </g>
    <g id="ytick_5">
     <g id="line2d_14">
      <path d="M 75.225 81.45475 
L 693.575 81.45475 
" clip-path="url(#pec6e374273)" style="fill: none; stroke: #b0b0b0; stroke-width: 0.8; stroke-linecap: square"/>
     </g>
     <g id="line2d_15">
      <g>
       <use xlink:href="#m5bc019a826" x="75.225" y="81.45475" style="stroke: #000000; stroke-width: 0.8"/>
      </g>
     </g>
     <g id="text_11">
      <text style="font: 16px 'DejaVu Sans', 'Bitstream Vera Sans', 'Computer Modern Sans Serif', 'Lucida Grande', 'Verdana', 'Geneva', 'Lucid', 'Arial', 'Helvetica', 'Avant Garde', sans-serif; text-anchor: end" x="68.225" y="87.5335" transform="rotate(-0 68.225 87.5335)">90</text>
     </g>
    </g>
    <g id="ytick_6">
     <g id="line2d_16">
      <path d="M 75.225 13.27875 
L 693.575 13.27875 
" clip-path="url(#pec6e374273)" style="fill: none; stroke: #b0b0b0; stroke-width: 0.8; stroke-linecap: square"/>
     </g>
     <g id="line2d_17">
      <g>
       <use xlink:href="#m5bc019a826" x="75.225" y="13.27875" style="stroke: #000000; stroke-width: 0.8"/>
      </g>
     </g>
     <g id="text_12">
      <text style="font: 16px 'DejaVu Sans', 'Bitstream Vera Sans', 'Computer Modern Sans Serif', 'Lucida Grande', 'Verdana', 'Geneva', 'Lucid', 'Arial', 'Helvetica', 'Avant Garde', sans-serif; text-anchor: end" x="68.225" y="19.3575" transform="rotate(-0 68.225 19.3575)">100</text>
     </g>
    </g>
    <g id="text_13">
     <text style="font: 16px 'DejaVu Sans', 'Bitstream Vera Sans', 'Computer Modern Sans Serif', 'Lucida Grande', 'Verdana', 'Geneva', 'Lucid', 'Arial', 'Helvetica', 'Avant Garde', sans-serif; text-anchor: middle" x="19.3575" y="183.71875" transform="rotate(-90 19.3575 183.71875)">Cummulative Mean Percentage</text>
    </g>
   </g>
   <g id="line2d_18">
    <path d="M 264.399162 74.63715 
L 264.28208 73.434044 
L 264.265041 79.469041 
L 264.122361 78.832596 
L 262.555347 77.595731 
L 262.325005 76.994638 
L 261.398141 82.717269 
L 261.201916 82.080218 
L 260.773597 81.45475 
L 259.984636 80.840552 
L 259.587449 80.237321 
L 259.53052 79.644768 
L 258.077802 77.928405 
L 257.224309 77.375844 
L 257.132307 76.832648 
L 257.127371 87.136083 
L 256.772263 86.525692 
L 256.60291 85.925307 
L 256.494864 90.877449 
L 256.306641 90.251653 
L 256.295534 89.63587 
L 256.284785 94.440655 
L 256.158308 93.801585 
L 256.158189 93.1725 
L 255.667487 92.553169 
L 255.649214 91.943365 
L 255.375916 96.547147 
L 254.826534 95.294991 
L 254.751531 94.079935 
L 254.255614 93.485809 
L 253.689432 92.323388 
L 253.649144 96.659469 
L 253.270826 100.933607 
L 253.270468 105.147119 
L 252.834187 109.301285 
L 252.760697 108.629799 
L 252.661331 112.702083 
L 252.424857 111.34012 
L 252.119234 115.310859 
L 251.835068 114.621453 
L 251.835068 113.9413 
L 251.221909 117.815283 
L 251.221909 121.637955 
L 251.136914 118.841589 
L 250.695059 118.164904 
L 250.452416 117.496839 
L 250.399587 116.837231 
L 249.595379 116.18592 
L 249.271443 115.54275 
L 248.642758 114.90757 
L 248.642758 114.280231 
L 248.330287 117.843167 
L 248.330287 121.362652 
L 247.862874 120.707598 
L 247.858336 120.060437 
L 247.777441 123.503421 
L 247.641131 122.847321 
L 247.282201 126.23307 
L 247.282201 129.578985 
L 247.013004 128.898867 
L 246.881391 138.659899 
L 246.500327 137.943436 
L 245.749146 137.235114 
L 245.705792 135.842346 
L 245.498341 135.157633 
L 244.194036 133.810905 
L 243.132215 129.323005 
L 242.940011 128.709015 
L 242.925878 127.500321 
L 242.502177 126.905417 
L 242.422437 125.734008 
L 242.052281 128.653519 
L 241.850442 128.064872 
L 241.647768 130.942912 
L 241.605569 130.348649 
L 241.499913 128.601337 
L 241.392504 127.465154 
L 241.201375 125.802245 
L 241.192099 128.55218 
L 241.150219 127.997981 
L 240.533398 127.449085 
L 240.371927 125.833467 
L 240.347802 128.505792 
L 240.302379 127.967348 
L 240.107467 126.905417 
L 240.088956 126.381791 
L 239.721387 131.575006 
L 239.693798 131.037295 
L 239.568555 130.504451 
L 239.179409 129.976408 
L 239.079008 132.51032 
L 239.049787 131.978036 
L 238.647982 128.381088 
L 238.476519 127.884957 
L 238.370344 130.319093 
L 238.335869 129.818921 
L 238.159509 129.323005 
L 237.99561 133.589338 
L 237.833104 135.938499 
L 237.254302 138.268083 
L 237.194268 136.725005 
L 236.877299 136.219078 
L 236.739236 135.717281 
L 236.482022 135.219563 
L 236.462674 134.725876 
L 236.248136 136.985202 
L 236.093434 135.99555 
L 236.093434 135.506638 
L 235.798479 137.727004 
L 235.363034 136.747096 
L 235.299934 136.262907 
L 234.850118 138.445625 
L 234.845221 137.958594 
L 234.80346 142.260372 
L 234.787934 141.764288 
L 234.576183 140.783483 
L 234.362601 139.817538 
L 233.568465 139.340033 
L 233.45401 138.866118 
L 233.173228 138.395754 
L 233.173228 137.928899 
L 232.692638 137.465516 
L 232.640128 136.549008 
L 232.448401 138.602279 
L 232.440479 138.143219 
L 232.24099 137.687509 
L 232.069566 139.714241 
L 231.865618 139.256141 
L 231.854511 138.349829 
L 231.631613 137.456464 
L 231.309349 137.014551 
L 231.109501 135.277908 
L 230.543 134.851337 
L 230.304019 134.007083 
L 230.286343 133.174474 
L 229.927891 132.353271 
L 229.860731 131.142343 
L 229.271459 129.565573 
L 229.144305 131.450483 
L 229.129495 131.057886 
L 228.988408 130.667889 
L 228.905722 129.513242 
L 228.814397 128.756014 
L 228.720803 128.008588 
L 228.055413 126.905417 
L 227.515944 126.542392 
L 227.385963 126.18168 
L 227.376647 125.823258 
L 227.214062 125.467104 
L 226.892355 125.113198 
L 226.74653 123.035778 
L 226.520726 122.697022 
L 226.301371 121.362652 
L 225.992045 123.106349 
L 225.624078 122.773538 
L 225.091695 124.502436 
L 224.930304 124.167425 
L 224.795347 125.881753 
L 224.774446 125.544618 
L 224.638176 125.209496 
L 224.613493 126.905417 
L 224.559311 126.568246 
L 224.395452 125.899871 
L 224.230239 125.239337 
L 224.103643 124.911966 
L 223.820034 124.586505 
L 223.758846 123.941243 
L 223.719274 125.591814 
L 223.631293 124.946336 
L 223.531091 124.626372 
L 222.905074 126.256121 
L 222.735721 125.934249 
L 222.70228 125.295974 
L 222.471062 126.905417 
L 222.471062 128.505792 
L 222.395462 127.860263 
L 222.311343 129.44456 
L 222.204691 129.120978 
L 222.19653 130.692972 
L 222.021563 130.367725 
L 221.828921 133.14864 
L 221.514261 131.845707 
L 221.208557 131.524387 
L 221.150036 130.886944 
L 220.938166 133.589338 
L 220.79461 133.26851 
L 220.778367 134.76258 
L 220.468523 134.119808 
L 220.420791 133.800966 
L 220.175241 133.483803 
L 219.738561 133.168304 
L 219.527447 132.854457 
L 219.511284 131.922698 
L 219.501889 133.381548 
L 219.302081 132.455305 
L 219.279509 132.149724 
L 218.996617 131.54324 
L 218.940405 131.242312 
L 218.734346 132.673268 
L 218.710978 132.371003 
L 218.526059 131.771042 
L 218.357223 133.186288 
L 218.357223 134.594439 
L 218.209885 133.989373 
L 218.097461 133.390313 
L 217.666315 133.093007 
L 216.786109 131.052375 
L 216.663135 130.198943 
L 216.573045 129.636827 
L 216.558673 129.357791 
L 216.345489 128.803714 
L 216.06399 127.982447 
L 215.839141 127.441392 
L 215.812349 127.172774 
L 215.501829 126.905417 
L 215.385941 126.374451 
L 215.229208 126.110825 
L 215.060412 129.523543 
L 215.000298 129.256313 
L 214.811916 127.938386 
L 214.331764 129.224328 
L 214.265599 128.962008 
L 213.754793 128.182121 
L 213.693485 127.92449 
L 213.211661 127.412679 
L 213.15107 131.188462 
L 213.136897 132.435918 
L 213.068941 131.910997 
L 212.61586 131.650266 
L 212.141042 130.874907 
L 212.141042 130.618706 
L 212.066955 131.845707 
L 211.954013 131.33243 
L 211.892944 132.549938 
L 211.617099 132.036944 
L 211.53294 133.245102 
L 211.48254 132.988215 
L 211.187267 132.732425 
L 211.067318 132.224112 
L 210.921533 133.419047 
L 210.784307 133.164513 
L 210.600423 134.352408 
L 210.39126 134.096978 
L 210.380153 133.842624 
L 210.144754 133.337115 
L 210.070349 132.338708 
L 209.804894 132.091696 
L 209.373469 131.845707 
L 209.306628 134.168152 
L 209.103476 133.919408 
L 208.873133 135.071604 
L 208.620298 134.822029 
L 208.213476 137.990945 
L 208.030986 136.985202 
L 208.022188 136.736295 
L 207.82656 138.72259 
L 207.722138 138.472203 
L 207.697296 138.222814 
L 207.546574 139.329804 
L 207.521095 139.079702 
L 207.331359 138.830592 
L 207.045163 140.773238 
L 207.033976 140.522758 
L 206.737469 140.024738 
L 206.614097 142.188536 
L 206.528027 141.687915 
L 206.311579 140.453212 
L 205.553232 138.526326 
L 205.372095 140.626373 
L 205.272211 140.386547 
L 205.189485 143.01666 
L 205.10457 142.775063 
L 205.080325 142.294557 
L 204.870963 145.354027 
L 204.82745 145.110794 
L 204.45821 144.146757 
L 204.420987 145.152035 
L 204.394911 144.911828 
L 204.319948 144.672495 
L 204.11811 144.434031 
L 204.078857 145.431504 
L 203.722873 144.717164 
L 203.698151 144.245213 
L 203.671478 145.232298 
L 203.585408 144.293127 
L 203.321745 144.06042 
L 203.206653 145.776277 
L 203.174924 145.542595 
L 203.049283 144.846469 
L 202.814123 144.616053 
L 202.789521 144.386442 
L 202.595326 143.929621 
L 202.445321 145.843194 
L 202.211236 144.702364 
L 201.988656 144.476551 
L 201.970503 143.803741 
L 201.875038 144.744416 
L 201.644855 144.520454 
L 201.522478 144.074811 
L 201.042724 142.973834 
L 201.03727 142.755859 
L 201.011592 143.682508 
L 200.994712 143.464077 
L 200.862861 143.246375 
L 200.680131 144.167565 
L 200.609388 143.949417 
L 200.383783 144.866371 
L 200.221437 144.647787 
L 200.219088 145.560541 
L 200.113033 145.123246 
L 200.064783 144.688832 
L 200.061519 146.496221 
L 200.020554 146.060158 
L 199.912907 145.843194 
L 199.911633 147.632105 
L 199.858248 147.195893 
L 199.785594 146.978847 
L 199.756094 147.865676 
L 199.701594 147.431524 
L 199.598804 147.000165 
L 199.425908 146.785524 
L 199.348198 148.539934 
L 199.235535 148.108479 
L 199.114631 148.979387 
L 199.103762 148.763647 
L 199.000455 148.548591 
L 198.871947 150.061562 
L 198.598928 149.845816 
L 198.471097 149.202643 
L 198.435945 148.777216 
L 198.343425 149.63075 
L 198.265198 149.418032 
L 198.093855 148.783843 
L 197.881387 152.349425 
L 197.636514 151.291048 
L 197.579028 152.941269 
L 197.490848 152.308357 
L 197.399563 151.473345 
L 197.381568 152.288285 
L 197.257838 153.283036 
L 197.24279 153.075006 
L 197.201785 153.879106 
L 197.164324 153.670809 
L 197.025585 154.471649 
L 197.01826 154.263093 
L 196.935255 153.641103 
L 196.712795 154.436107 
L 196.656304 155.810446 
L 196.634608 155.60237 
L 196.472818 156.388721 
L 196.381016 156.180409 
L 196.2164 156.963634 
L 196.170618 159.299705 
L 196.104693 159.088692 
L 196.005684 158.668491 
L 195.988446 158.459297 
L 195.968939 159.230244 
L 195.873833 159.99898 
L 195.829444 159.788779 
L 195.633975 159.579179 
L 195.633975 159.370179 
L 195.596594 160.134328 
L 195.577405 159.716531 
L 195.497784 160.476932 
L 195.477362 160.26814 
L 194.944222 163.073905 
L 194.940639 162.863223 
L 194.527328 162.234716 
L 194.460407 161.404878 
L 194.435008 162.147067 
L 194.276285 161.734118 
L 194.185836 162.472767 
L 194.180023 162.266413 
L 193.981211 161.855412 
L 193.943749 162.589824 
L 193.839167 162.384445 
L 193.738845 163.116113 
L 193.477013 162.501185 
L 193.476694 162.297329 
L 193.384295 163.748941 
L 193.343489 163.544219 
L 193.08301 163.136443 
L 192.956533 162.933384 
L 192.889691 163.653418 
L 192.875837 163.247549 
L 192.521327 163.964249 
L 192.427374 163.156284 
L 192.342897 163.868308 
L 192.302171 163.4662 
L 192.299225 163.26595 
L 192.292019 163.974036 
L 192.234493 163.573783 
L 191.818316 162.582391 
L 191.802551 163.283915 
L 191.715646 162.889683 
L 191.703862 162.693343 
L 191.633079 164.086918 
L 191.566835 163.10637 
L 191.154838 162.331066 
L 191.102049 163.019318 
L 191.071992 162.826105 
L 190.858808 162.633389 
L 190.828672 162.44117 
L 190.778352 163.125742 
L 190.776879 162.933384 
L 190.465204 162.359262 
L 190.0839 163.819664 
L 190.055436 163.628864 
L 190.049186 164.301535 
L 189.994606 163.920164 
L 189.873941 163.351706 
L 189.849736 164.685927 
L 189.752281 164.306935 
L 189.552234 164.11815 
L 189.450638 163.181259 
L 189.092265 162.07224 
L 188.967142 161.706204 
L 188.906511 162.361404 
L 188.710723 161.813976 
L 188.634168 161.632393 
L 188.514379 162.933384 
L 188.498972 162.751101 
L 188.010341 162.026386 
L 187.888959 163.413624 
L 187.831393 163.233173 
L 187.72291 164.508486 
L 187.437669 163.786626 
L 187.338382 163.428274 
L 187.281852 164.060391 
L 187.196737 163.881315 
L 187.083238 163.169246 
L 186.481426 162.463879 
L 186.345314 163.089702 
L 186.334565 162.913867 
L 186.219514 162.738445 
L 185.914049 164.427408 
L 185.858315 164.251244 
L 185.793424 163.900145 
L 185.781122 164.517031 
L 185.687847 164.341581 
L 185.648992 165.218334 
L 185.121545 164.346121 
L 184.961548 165.387674 
L 184.857284 165.213836 
L 184.663567 166.247679 
L 184.137275 165.209429 
L 184.05443 166.405432 
L 183.992684 165.888694 
L 183.941528 165.546135 
L 183.878548 166.560361 
L 183.810313 166.047713 
L 183.687697 165.707849 
L 183.643985 166.373086 
L 183.582001 166.203921 
L 183.485182 165.86671 
L 183.232705 165.698662 
L 183.035007 164.698094 
L 182.967131 164.532608 
L 182.838384 165.111763 
L 182.791965 164.946187 
L 182.353733 164.616117 
L 182.251063 165.602568 
L 182.18872 165.272863 
L 182.002367 165.845582 
L 181.765775 165.352371 
L 181.663821 166.326913 
L 181.603309 166.162698 
L 181.298362 165.509348 
L 181.10994 166.638409 
L 181.08462 166.475087 
L 180.996241 167.037388 
L 180.835408 166.710937 
L 180.738191 167.2712 
L 180.43838 166.94529 
L 180.275237 167.503528 
L 180.207002 168.616472 
L 180.058549 169.171184 
L 180.020292 169.007087 
L 179.95138 168.843335 
L 179.945926 169.396061 
L 179.856831 169.068771 
L 179.678242 168.418291 
L 179.588668 168.095083 
L 179.540777 167.77322 
L 179.515298 168.320744 
L 179.309439 167.999413 
L 179.195223 169.6328 
L 179.120818 169.471443 
L 178.99868 170.013265 
L 178.985184 169.85185 
L 178.68386 168.731184 
L 178.550057 169.486489 
L 178.369 169.32758 
L 178.315933 169.01073 
L 177.98288 168.537859 
L 177.950116 169.070216 
L 177.689478 169.601497 
L 177.651021 169.443755 
L 177.492098 171.239191 
L 177.383336 171.080914 
L 177.293843 172.695267 
L 177.227041 172.536802 
L 177.178472 172.378651 
L 177.030378 173.931106 
L 176.875675 173.455334 
L 176.875118 173.969716 
L 176.827982 173.495702 
L 176.674991 174.36126 
L 176.605244 175.380198 
L 176.459578 175.888173 
L 176.20101 175.570887 
L 176.026044 175.254836 
L 175.653379 174.158286 
L 175.479926 174.661552 
L 175.30054 174.505777 
L 175.267816 175.007737 
L 175.209255 174.696421 
L 175.14118 174.3863 
L 175.102962 174.885967 
L 175.03839 174.576375 
L 175.017728 174.267966 
L 174.985442 174.765359 
L 174.884085 174.611269 
L 174.78655 175.293959 
L 174.598048 174.833252 
L 174.387889 174.375158 
L 174.345133 174.223037 
L 174.192858 174.714373 
L 174.064351 174.562218 
L 174.021594 175.052309 
L 173.849893 174.900123 
L 173.551873 175.388976 
L 173.53973 175.87691 
L 173.484872 175.724379 
L 173.216988 176.544007 
L 173.140274 176.239123 
L 173.063519 176.723078 
L 173.023709 176.570754 
L 172.991423 176.418713 
L 172.89763 176.90115 
L 172.820756 176.749085 
L 172.583964 175.842595 
L 172.307124 175.243833 
L 172.250115 175.722025 
L 172.195854 175.274933 
L 172.100667 174.978237 
L 172.071128 174.830296 
L 171.884418 175.305807 
L 171.675613 175.157837 
L 171.672269 175.632181 
L 171.616335 175.188996 
L 171.438502 174.894881 
L 171.337822 175.397086 
L 171.308442 175.250638 
L 171.272414 174.958534 
L 171.104175 175.748534 
L 170.927139 175.60256 
L 170.792182 176.534284 
L 170.734298 175.950707 
L 170.699782 175.805464 
L 170.564547 176.268652 
L 170.482219 175.978376 
L 170.344794 176.440173 
L 170.338225 176.90115 
L 170.325645 176.755837 
L 170.214694 177.674778 
L 170.183721 177.529166 
L 170.164811 177.987139 
L 170.074482 177.696135 
L 169.966277 177.117201 
L 169.801861 178.191774 
L 169.673632 177.903212 
L 169.59433 178.806505 
L 169.571876 178.662066 
L 169.276126 180.614466 
L 169.119233 180.324707 
L 169.026555 180.03595 
L 168.989213 180.480684 
L 168.820258 180.192405 
L 168.742548 179.905118 
L 168.652537 180.646441 
L 168.333179 180.359607 
L 168.218127 180.216558 
L 168.08942 180.656954 
L 168.063305 180.513895 
L 167.902351 180.371081 
L 167.862183 180.810218 
L 167.82074 180.524815 
L 167.568303 180.240383 
L 167.563725 180.677764 
L 167.511932 180.53566 
L 167.446324 180.972049 
L 167.17856 180.688064 
L 167.063429 182.281651 
L 166.957255 182.713628 
L 166.935439 182.571006 
L 166.911672 182.428624 
L 166.904347 182.859389 
L 166.818357 183.28943 
L 166.643072 183.146804 
L 166.470335 183.575883 
L 166.36631 184.429509 
L 166.258464 184.286883 
L 166.250025 184.712155 
L 166.210811 184.569532 
L 166.048107 185.697324 
L 165.941216 186.961198 
L 165.922744 186.817659 
L 165.845631 186.531291 
L 165.693237 186.245867 
L 165.32551 184.692693 
L 165.227099 185.24425 
L 165.015348 184.825503 
L 164.68735 186.319842 
L 164.654706 186.042311 
L 164.436585 185.903878 
L 164.428504 186.311512 
L 164.322927 186.173086 
L 164.273005 186.98597 
L 164.122999 187.39144 
L 164.101382 187.252594 
L 164.055242 187.113969 
L 164.041149 187.518368 
L 163.977095 187.379752 
L 163.868731 187.783297 
L 163.780312 187.644691 
L 163.764746 188.047385 
L 163.733057 187.90879 
L 163.66327 187.770414 
L 163.636915 188.172052 
L 163.512906 188.033687 
L 163.231965 187.895541 
L 163.169582 188.696082 
L 163.142909 188.557741 
L 163.091514 188.419617 
L 162.97268 189.078498 
L 162.944176 188.9404 
L 162.84059 188.527402 
L 162.585844 189.320065 
L 162.564466 189.182425 
L 162.468881 189.045 
L 162.463745 189.439999 
L 162.375605 189.028407 
L 162.167676 188.346679 
L 162.070619 188.210967 
L 161.770528 189.505293 
L 161.701617 189.369421 
L 161.409927 189.098304 
L 161.354272 188.963058 
L 161.274174 189.352047 
L 161.175563 189.081789 
L 161.079143 189.469793 
L 161.02723 189.334781 
L 160.924957 188.930982 
L 160.785303 188.529032 
L 160.734983 189.300563 
L 160.679009 188.899297 
L 160.52144 188.632802 
L 160.511925 188.499857 
L 160.497912 188.883598 
L 160.430951 188.750665 
L 160.376172 188.617933 
L 160.372032 189.000715 
L 160.325295 188.603154 
L 160.273939 188.852485 
L 160.157096 188.588464 
L 160.094196 188.325236 
L 160.05765 188.705367 
L 159.880813 189.084927 
L 159.879141 188.953237 
L 159.877349 188.821744 
L 159.809353 189.578421 
L 159.803461 189.446756 
L 159.583668 189.184015 
L 159.438122 188.530578 
L 159.428647 188.906604 
L 159.391703 188.646222 
L 159.074375 188.257093 
L 158.984921 188.127767 
L 158.883286 188.502147 
L 158.854383 188.372831 
L 158.835832 188.243706 
L 158.795862 188.617173 
L 158.756768 188.359133 
L 158.66839 189.345896 
L 158.574716 189.957403 
L 158.550989 189.828157 
L 158.480127 189.699101 
L 158.457236 190.068231 
L 158.373913 189.810333 
L 158.283265 190.178575 
L 158.26742 189.921079 
L 158.223151 189.664331 
L 158.211248 190.031343 
L 158.144247 190.397821 
L 158.120162 190.269381 
L 157.833567 190.635156 
L 157.667558 191.236349 
L 157.595223 191.107767 
L 157.541479 191.471616 
L 157.469343 191.214669 
L 157.387493 190.702992 
L 157.356759 191.065302 
L 157.237527 192.125012 
L 157.230282 191.997264 
L 157.048627 192.586975 
L 156.971395 192.459263 
L 156.838947 192.816971 
L 156.801684 192.689276 
L 156.780704 192.561764 
L 156.48149 192.307281 
L 156.413812 192.663828 
L 156.37432 192.536695 
L 156.197085 192.282968 
L 156.183987 192.638524 
L 156.172084 192.511768 
L 155.952689 192.385191 
L 155.704193 193.547217 
L 155.605225 193.899635 
L 155.584484 193.646132 
L 155.39845 193.99774 
L 155.32078 195.049611 
L 155.228102 195.399253 
L 155.212337 195.144895 
L 155.101505 194.764687 
L 154.778245 195.68153 
L 154.754041 195.554861 
L 154.754041 195.428368 
L 154.682502 195.774839 
L 154.587634 195.648369 
L 154.575452 195.994207 
L 154.553875 195.741489 
L 154.42043 195.489468 
L 154.352713 196.052451 
L 154.31127 195.926574 
L 154.102147 196.61311 
L 153.995177 196.487107 
L 153.98825 196.829519 
L 153.953017 196.703541 
L 153.722556 197.689242 
L 153.619009 198.241586 
L 153.582583 198.115589 
L 153.543648 198.453862 
L 153.210515 198.076467 
L 152.961064 197.575661 
L 152.916317 197.326274 
L 152.731995 197.201833 
L 152.706915 197.538209 
L 152.48334 198.2096 
L 152.467695 197.960367 
L 152.363193 197.836003 
L 152.302323 198.170594 
L 152.244797 197.922083 
L 152.120748 197.67424 
L 151.887459 197.180544 
L 151.687054 197.722838 
L 151.647403 197.599711 
L 151.550067 197.35395 
L 151.445247 197.108843 
L 151.331708 196.864388 
L 151.237118 197.195401 
L 151.202881 197.073279 
L 150.857009 196.343935 
L 150.823051 196.673542 
L 150.784953 197.002713 
L 150.774562 196.881443 
L 150.53781 196.760333 
L 150.530167 197.088796 
L 150.440434 196.605404 
L 150.125495 196.364659 
L 150.057141 196.004726 
L 149.701714 196.983864 
L 149.685272 196.863796 
L 149.607005 196.50453 
L 149.59769 196.829519 
L 149.482558 197.478229 
L 149.437175 197.358386 
L 149.233943 196.880567 
L 149.213719 197.203627 
L 149.196044 197.526268 
L 149.09194 197.406937 
L 148.950693 197.168737 
L 148.842249 196.931153 
L 148.74352 196.812591 
L 148.735558 197.134027 
L 148.692483 196.660783 
L 148.463414 196.425074 
L 148.447809 196.745314 
L 148.352821 196.627556 
L 148.250788 196.392494 
L 148.038837 195.924172 
L 147.966343 195.807466 
L 147.931071 196.327832 
L 147.882622 196.094648 
L 147.799299 195.745985 
L 147.791894 196.063197 
L 147.714503 196.696415 
L 147.49479 197.012422 
L 147.465489 197.328028 
L 147.436308 197.211467 
L 147.166594 196.862669 
L 147.047481 197.375457 
L 146.747272 197.143451 
L 146.611638 196.796536 
L 146.510679 197.422469 
L 146.325601 197.191423 
L 146.277749 197.076117 
L 146.230534 197.699739 
L 146.208041 197.469069 
L 145.909702 197.124143 
L 145.798154 197.824861 
L 145.506703 197.595468 
L 145.438587 197.13839 
L 145.383092 197.332843 
L 145.274011 197.218948 
L 145.240332 197.526814 
L 145.164732 197.299207 
L 145.092437 197.072161 
L 144.985387 196.845675 
L 144.915758 197.458836 
L 144.858432 197.345564 
L 144.839482 197.232432 
L 144.82312 197.538209 
L 144.773317 198.035292 
L 144.762051 197.922083 
L 144.70134 197.809013 
L 144.530474 198.607522 
L 144.510848 198.381374 
L 144.393248 198.155776 
L 144.356025 198.458385 
L 144.276007 198.233105 
L 144.152595 198.008373 
L 144.099129 198.310153 
L 144.026555 198.085736 
L 144.003346 197.973732 
L 143.84514 197.861863 
L 143.611573 198.53962 
L 143.592185 198.427815 
L 143.421319 197.870808 
L 143.317295 197.648942 
L 142.981574 197.42761 
L 142.960156 197.206808 
L 142.442065 197.955982 
L 142.293772 197.735866 
L 142.291702 198.032056 
L 142.231707 197.812242 
L 142.18071 197.702531 
L 142.075173 198.368305 
L 141.968283 198.258655 
L 141.946148 198.552782 
L 141.879426 198.333652 
L 141.813022 198.005928 
L 141.737263 198.190071 
L 141.569742 198.081107 
L 141.451186 198.557056 
L 141.440876 198.448133 
L 141.198152 197.905432 
L 140.97613 197.797274 
L 140.735875 198.088399 
L 140.693676 198.669627 
L 140.62146 198.34495 
L 140.532643 198.236976 
L 140.471455 198.526657 
L 140.298877 198.310876 
L 139.678035 197.133009 
L 139.489892 196.920461 
L 139.418074 196.814371 
L 139.203019 197.463911 
L 139.195853 197.357875 
L 138.907905 197.824129 
L 138.859655 197.71813 
L 138.679752 197.40086 
L 138.65292 197.686039 
L 138.572781 197.474926 
L 138.506497 197.759574 
L 138.504387 197.654096 
L 138.258121 197.338385 
L 138.182203 197.233388 
L 138.043145 197.800687 
L 137.785174 197.695606 
L 137.592134 197.97867 
L 137.430265 199.353676 
L 137.405464 199.248371 
L 137.383369 199.528795 
L 137.348296 199.42351 
L 137.284122 199.703518 
L 137.242361 199.493107 
L 137.225879 199.283169 
L 137.198251 199.562468 
L 137.169548 199.457579 
L 136.956881 200.015038 
L 136.956602 199.910071 
L 136.864879 200.256114 
L 136.842984 200.151306 
L 136.785537 200.046616 
L 136.597195 199.942042 
L 136.592418 200.219097 
L 136.5499 200.114544 
L 136.479396 200.010108 
L 136.344559 200.734232 
L 136.324813 200.629742 
L 136.117162 200.905179 
L 135.996417 200.80071 
L 135.98109 201.075745 
L 135.949879 200.971297 
L 135.814285 201.245932 
L 135.627893 201.037195 
L 135.625545 201.311336 
L 135.206541 200.894874 
L 135.16068 201.168335 
L 135.075525 201.064414 
L 134.98428 200.960607 
L 134.886267 201.233579 
L 134.837818 201.129794 
L 134.758197 200.922567 
L 134.655566 200.715797 
L 134.540037 200.509482 
L 134.519136 200.7815 
L 134.431793 200.67842 
L 134.300618 200.950047 
L 134.203361 200.744041 
L 133.929984 201.55658 
L 133.735391 201.144819 
L 133.608675 201.581457 
L 133.55306 201.478728 
L 133.298154 201.273606 
L 133.25918 201.171212 
L 132.919677 201.440056 
L 132.892527 201.708609 
L 132.717003 201.503793 
L 132.608719 201.299423 
L 132.328216 202.102251 
L 132.007504 202.369281 
L 131.961005 202.636021 
L 131.90758 202.4312 
L 131.628749 202.861039 
L 131.43953 202.554437 
L 131.139121 203.673594 
L 131.109184 203.571396 
L 130.896279 204.098439 
L 130.838315 204.521919 
L 130.678596 204.419595 
L 130.574014 205.205844 
L 130.538304 205.103374 
L 130.368235 204.694584 
L 130.315924 204.592658 
L 130.054927 205.11441 
L 129.906913 205.012424 
L 129.830636 205.272799 
L 129.368638 205.068984 
L 129.284996 204.967238 
L 129.172293 205.644065 
L 129.125914 205.440611 
L 128.95266 205.136237 
L 128.781515 205.394761 
L 128.755917 205.293434 
L 128.707667 205.192213 
L 128.459728 205.450299 
L 128.393683 205.349103 
L 128.373937 205.606834 
L 128.218637 205.864294 
L 127.728333 205.661892 
L 127.548231 205.359086 
L 127.514194 205.615866 
L 127.413274 205.51506 
L 127.345677 205.77149 
L 127.232257 205.670708 
L 127.062466 206.182599 
L 126.717271 205.981028 
L 126.584464 205.779877 
L 126.456553 206.544743 
L 126.258696 207.053326 
L 125.99539 206.952507 
L 125.990613 207.206322 
L 125.893277 207.004838 
L 125.866604 206.904254 
L 125.845823 207.157567 
L 125.746735 207.057007 
L 125.675156 207.309979 
L 125.590002 207.209444 
L 125.3177 206.808347 
L 125.302054 207.312717 
L 125.203165 207.212545 
L 125.163395 207.364114 
L 125.047029 207.064291 
L 124.956023 206.964555 
L 124.719709 207.215622 
L 124.714693 207.466431 
L 124.61039 207.366643 
L 124.420694 207.167374 
L 124.328891 207.917561 
L 124.26834 207.817848 
L 124.265792 207.718238 
L 124.076215 207.967634 
L 124.027686 207.868049 
L 123.72676 207.669184 
L 123.632887 207.918096 
L 123.612345 207.81874 
L 123.265518 207.620331 
L 123.190197 207.86876 
L 123.169575 207.670603 
L 123.066068 207.571676 
L 122.83903 207.819625 
L 122.812238 207.720723 
L 122.691533 207.621921 
L 122.690299 207.869466 
L 122.681779 207.770689 
L 122.413259 207.573436 
L 122.39821 207.474959 
L 122.210943 207.721952 
L 121.970727 207.426894 
L 121.8966 208.165699 
L 121.547464 208.558468 
L 121.493521 208.803669 
L 121.196934 208.606766 
L 121.089765 208.851573 
L 120.453238 208.654919 
L 120.249727 208.899333 
L 119.905448 208.702927 
L 119.444444 208.946949 
L 119.247304 209.190726 
L 119.24185 209.092524 
L 119.002311 208.994421 
L 118.8998 209.237809 
L 118.693622 208.94387 
L 118.639798 208.7484 
L 118.149375 208.553321 
L 118.073338 208.455927 
L 117.39712 208.940813 
L 116.74443 208.454575 
L 116.617992 208.937777 
L 116.599042 209.179018 
L 116.561621 208.887789 
L 116.423519 209.128577 
L 116.157108 209.369126 
L 116.080911 209.609438 
L 115.940102 209.512341 
L 115.899973 209.752344 
L 115.450953 209.267941 
L 115.400234 209.507355 
L 114.417835 208.928794 
L 114.361464 209.167552 
L 114.323326 209.071386 
L 114.009581 208.975315 
L 113.991547 209.213699 
L 113.762398 209.451848 
L 113.683972 209.355732 
L 112.980365 209.735032 
L 112.88482 209.972344 
L 112.77992 209.876208 
L 112.536559 210.11322 
L 112.180814 209.921093 
L 112.033397 210.157735 
L 110.908636 209.965846 
L 109.897613 209.774329 
L 109.802666 210.010468 
L 109.537449 209.723687 
L 109.531677 209.628279 
L 108.969595 209.437741 
L 108.857927 209.34261 
L 108.845666 209.578042 
L 108.659632 209.813246 
L 108.076849 209.62299 
L 107.703747 209.857831 
L 107.033779 209.572934 
L 106.409633 209.38346 
L 106.283195 209.617737 
L 103.331818 209.428495 
L 103.331818 209.428495 
" clip-path="url(#pec6e374273)" style="fill: none; stroke: #1f77b4; stroke-width: 1.5; stroke-linecap: square"/>
   </g>
   <g id="line2d_19">
    <path d="M 665.468182 74.63715 
L 664.487654 72.850012 
L 664.298953 78.832596 
L 663.900054 78.208274 
L 663.900054 77.595731 
L 663.69089 76.994638 
L 663.217705 76.404676 
L 663.021122 75.825539 
L 662.468077 75.256932 
L 662.409237 73.082259 
L 662.355254 72.562228 
L 661.71391 71.548835 
L 661.485319 70.569506 
L 660.929408 70.092083 
L 660.614031 69.160717 
L 659.668377 68.706392 
L 659.312552 67.81955 
L 657.537092 67.386687 
L 656.701075 65.721827 
L 656.701075 65.321498 
L 655.850011 70.092083 
L 655.566482 69.664915 
L 655.112246 69.244123 
L 654.840103 68.829565 
L 654.767966 68.421103 
L 654.381647 68.018604 
L 654.236339 66.845607 
L 653.827089 66.4657 
L 653.775495 75.256932 
L 652.845765 74.826528 
L 652.496629 74.40206 
L 652.378551 73.983408 
L 652.343439 78.208274 
L 652.328868 77.769561 
L 652.181968 77.336737 
L 652.131409 76.488286 
L 652.058477 76.072434 
L 651.295074 75.662018 
L 651.236553 75.256932 
L 651.016482 79.255524 
L 650.625783 78.832596 
L 650.48581 78.002801 
L 650.219638 77.595731 
L 649.943673 76.0174 
L 649.489676 75.634848 
L 649.25185 75.256932 
L 648.714809 74.883569 
L 648.714809 74.514678 
L 648.065264 73.434044 
L 648.061362 72.734564 
L 647.714774 72.390889 
L 647.190392 75.969325 
L 647.038556 75.611093 
L 645.74058 74.560548 
L 645.724258 74.218191 
L 645.648459 77.667194 
L 645.63349 76.959629 
L 645.005045 76.611646 
L 644.985697 76.267446 
L 644.515378 75.926966 
L 644.443321 75.590148 
L 644.404387 78.902707 
L 643.696878 78.553644 
L 643.624184 81.81547 
L 643.494642 81.097808 
L 643.104978 80.744583 
L 643.074006 80.395019 
L 642.680919 83.563286 
L 641.875079 86.699058 
L 641.875079 89.802832 
L 640.320167 88.649202 
L 640.237044 88.27235 
L 640.087118 91.291088 
L 639.468943 90.522494 
L 639.359147 90.143848 
L 639.301979 93.094555 
L 638.982939 92.7071 
L 638.982939 92.323388 
L 638.601079 95.221058 
L 638.601079 98.090999 
L 638.258312 97.687131 
L 637.705745 96.498281 
L 637.435512 96.109404 
L 637.33535 95.724145 
L 637.232321 101.247782 
L 637.07292 100.844255 
L 637.052856 100.444412 
L 636.691139 100.048205 
L 636.691139 99.655583 
L 635.915634 98.880902 
L 635.911653 98.49875 
L 635.911016 101.150039 
L 635.639271 103.777865 
L 635.628682 111.523641 
L 635.266806 109.837033 
L 634.724191 109.424391 
L 634.300371 106.631779 
L 633.936664 109.063213 
L 633.170474 108.669038 
L 632.962107 107.890342 
L 632.549832 110.277124 
L 632.549832 112.64458 
L 631.275981 111.846461 
L 631.188638 111.45219 
L 630.65502 110.673036 
L 629.989312 110.288078 
L 629.768206 112.590246 
L 629.76526 112.200789 
L 629.353303 114.4775 
L 629.331885 114.083731 
L 629.331885 113.693014 
L 628.978926 118.164904 
L 628.699856 117.763041 
L 628.680668 117.364246 
L 628.380737 116.968484 
L 628.242675 121.331278 
L 627.931119 120.925066 
L 627.866467 120.521896 
L 627.52163 120.121735 
L 627.29081 119.330306 
L 627.04526 118.550515 
L 627.040881 117.782108 
L 626.873996 117.402095 
L 626.869139 116.650302 
L 626.750504 116.278462 
L 626.750504 115.909288 
L 626.489747 115.54275 
L 626.253194 114.458679 
L 625.873085 114.102412 
L 625.85947 116.140785 
L 625.714322 115.781128 
L 625.714322 115.423976 
L 625.428086 115.069306 
L 625.428086 114.717089 
L 625.299578 116.718198 
L 624.837141 114.964987 
L 624.424229 114.621453 
L 624.354561 113.9413 
L 624.21626 113.604636 
L 624.158057 115.54275 
L 624.127562 115.203002 
L 623.732087 113.866291 
L 623.310814 113.537574 
L 623.260733 113.210998 
L 623.21933 116.976873 
L 623.090424 116.642363 
L 622.741208 115.979776 
L 622.419859 115.325629 
L 622.149627 115.001671 
L 622.07128 114.679763 
L 621.808054 114.359886 
L 621.480415 113.100308 
L 621.473329 112.482217 
L 621.360586 114.280231 
L 621.22961 113.969458 
L 621.223082 113.66059 
L 621.206361 115.438505 
L 621.009061 115.127043 
L 620.927689 114.203946 
L 620.800853 113.899955 
L 620.800853 113.597789 
L 620.686677 115.33863 
L 620.639781 114.731131 
L 620.550845 114.130821 
L 619.682582 113.833322 
L 619.330261 113.243559 
L 619.179937 112.660674 
L 619.146655 112.371773 
L 619.025632 114.060663 
L 618.91902 116.812504 
L 618.449736 115.639317 
L 618.009434 114.2097 
L 617.936103 113.370938 
L 617.614038 113.094441 
L 617.357262 112.274038 
L 616.93567 112.003559 
L 616.637013 113.59221 
L 616.618064 113.31962 
L 616.56432 112.510664 
L 616.442898 111.714686 
L 616.313594 111.19109 
L 616.011195 110.931376 
L 615.973933 112.476634 
L 615.905061 111.954539 
L 615.660307 111.695548 
L 615.576626 110.926667 
L 615.342064 110.169706 
L 615.337366 111.677101 
L 615.266265 111.424148 
L 615.161006 111.172494 
L 614.932973 110.922126 
L 614.932973 110.673036 
L 614.422684 109.689255 
L 614.220687 111.163687 
L 614.197358 110.917745 
L 614.046158 110.187279 
L 613.86749 111.642133 
L 613.816612 111.155186 
L 613.784047 110.913515 
L 613.583244 110.673036 
L 613.54009 110.433738 
L 613.487222 111.866593 
L 613.321531 111.625547 
L 613.321531 111.385677 
L 613.235939 112.805757 
L 612.981392 112.084547 
L 612.864111 114.401047 
L 612.581139 114.159705 
L 612.581139 113.919512 
L 612.413697 115.299843 
L 612.413697 116.673632 
L 612.376355 116.429199 
L 612.103256 116.18592 
L 612.046884 115.224171 
L 611.849903 116.57572 
L 611.849903 117.920983 
L 611.654116 117.678193 
L 611.651727 117.195979 
L 611.463902 116.956538 
L 611.388661 116.009709 
L 611.167236 117.328682 
L 611.074478 118.641659 
L 611.043585 118.402741 
L 610.554237 117.224221 
L 610.075159 116.760179 
L 609.820931 120.369369 
L 609.654126 119.897605 
L 609.579282 119.429978 
L 609.258889 119.1977 
L 609.206817 118.051391 
L 609.087306 120.538405 
L 609.069073 120.307739 
L 608.667387 120.078063 
L 608.57017 119.621656 
L 608.477492 120.848558 
L 608.195555 122.070239 
L 607.681445 121.38023 
L 607.6531 122.59048 
L 607.519099 122.36035 
L 607.327372 125.719335 
L 607.051487 125.019497 
L 607.047824 124.78815 
L 606.74654 125.966353 
L 606.74654 127.139698 
L 606.677349 126.905417 
L 606.214833 125.977852 
L 606.176536 128.291108 
L 606.079956 128.057817 
L 605.930508 127.825471 
L 605.887831 128.971356 
L 605.535112 130.112621 
L 605.235499 129.877543 
L 605.062165 129.17795 
L 605.010173 131.432375 
L 604.846951 131.197478 
L 604.839785 132.31621 
L 604.551638 132.080493 
L 604.234748 134.926123 
L 603.940789 134.688065 
L 603.661479 133.74508 
L 603.504069 135.679677 
L 603.348252 135.208904 
L 603.028734 136.283433 
L 603.028177 136.047792 
L 603.028177 135.813052 
L 602.871324 135.346255 
L 602.810415 135.114187 
L 602.382215 134.652689 
L 602.376164 134.423249 
L 602.111027 137.584615 
L 602.111027 138.630495 
L 602.005291 137.928899 
L 601.88594 137.465516 
L 601.359488 135.870456 
L 601.344121 136.894574 
L 601.328516 136.668585 
L 601.173653 136.443422 
L 601.069908 137.795495 
L 600.997771 137.570736 
L 600.919823 139.576016 
L 600.647043 139.349271 
L 600.615752 140.34513 
L 600.549507 139.891321 
L 600.320678 139.440743 
L 600.299578 140.427595 
L 600.20682 139.977511 
L 600.088743 139.530602 
L 599.781487 139.308327 
L 599.728778 138.866118 
L 599.443497 137.990945 
L 599.378686 137.557917 
L 598.964818 138.524088 
L 598.640205 137.448097 
L 598.587257 138.404513 
L 598.549915 138.190257 
L 598.220763 137.551868 
L 598.151493 139.444862 
L 598.128563 140.386547 
L 597.578225 139.957128 
L 597.496534 138.89617 
L 597.479177 139.826175 
L 597.126059 138.776859 
L 596.971834 139.697823 
L 596.41234 138.454357 
L 596.341876 138.249486 
L 596.213368 140.762327 
L 596.190915 140.555373 
L 596.08916 139.938524 
L 595.757859 139.530602 
L 595.592327 139.125299 
L 595.49312 140.016186 
L 595.429981 139.611274 
L 595.401556 139.208941 
L 595.141277 142.522352 
L 595.119142 142.318498 
L 594.780436 141.912712 
L 594.746995 141.710775 
L 594.741581 142.57806 
L 594.644364 141.972915 
L 594.603041 142.834389 
L 594.508213 142.632902 
L 594.409961 142.231804 
L 594.402397 142.032187 
L 594.365851 143.738997 
L 593.865436 141.756318 
L 593.736769 143.432932 
L 593.461043 143.236027 
L 593.222738 142.066996 
L 593.212865 142.894798 
L 593.201718 142.701052 
L 593.068513 143.525437 
L 593.051633 145.166845 
L 593.024085 144.970875 
L 592.850671 144.580676 
L 592.78156 144.192782 
L 592.732036 145.00524 
L 592.638402 144.811239 
L 592.548431 144.617809 
L 591.963777 144.424947 
L 591.728976 144.040917 
L 591.649435 145.64967 
L 591.640437 145.456709 
L 591.269405 145.072471 
L 591.006418 147.862496 
L 590.912068 147.475761 
L 590.741123 147.283226 
L 590.680929 148.850481 
L 590.462769 149.63075 
L 590.403531 149.436239 
L 590.399232 149.242283 
L 590.396923 150.018665 
L 590.373594 149.824432 
L 590.27582 149.437617 
L 590.141738 150.20933 
L 590.133458 150.015925 
L 590.095399 149.823066 
L 590.057341 150.590975 
L 589.987593 150.205267 
L 589.946349 150.013224 
L 589.897701 150.776565 
L 589.730259 150.392493 
L 589.602786 149.820391 
L 589.446571 150.577639 
L 589.251739 150.38721 
L 589.218378 150.19731 
L 589.025696 150.007934 
L 588.964946 150.760739 
L 588.945598 150.571109 
L 588.860245 150.382001 
L 588.793045 151.131185 
L 588.541842 150.941827 
L 588.432761 150.18957 
L 588.29446 150.932884 
L 588.129964 150.558315 
L 588.116827 150.185778 
L 587.909256 151.660347 
L 587.801051 151.286847 
L 587.532491 150.545864 
L 587.424048 152.543476 
L 587.415608 152.35779 
L 587.207798 151.80369 
L 587.167032 151.61997 
L 586.996246 152.33973 
L 586.704596 151.97233 
L 586.481817 151.606866 
L 586.374011 152.668737 
L 585.999635 152.486289 
L 585.706949 151.581169 
L 585.647632 152.286958 
L 585.360918 151.926833 
L 585.353832 151.747469 
L 585.32477 152.449396 
L 585.271902 152.269821 
L 585.26824 152.969265 
L 585.177233 152.431305 
L 585.062819 152.07496 
L 584.910584 152.769287 
L 584.895536 152.413444 
L 584.747999 151.88307 
L 584.707711 151.707176 
L 584.610335 153.082699 
L 584.517736 153.767852 
L 584.408257 153.590467 
L 584.340182 154.273252 
L 584.261119 154.095677 
L 584.200925 153.741866 
L 584.094552 155.098499 
L 584.094313 154.74395 
L 583.888892 157.431984 
L 583.699952 157.074283 
L 583.611972 156.896098 
L 583.357823 157.562116 
L 583.302486 158.226488 
L 583.150172 157.869034 
L 583.111715 157.513338 
L 583.089501 158.173689 
L 583.013861 157.995903 
L 582.89037 158.953964 
L 582.889574 158.776311 
L 582.8336 158.070012 
L 582.790128 158.720883 
L 582.721495 159.370179 
L 582.701032 159.017301 
L 582.595614 158.666123 
L 582.453651 159.779398 
L 582.329841 159.428499 
L 582.258103 159.079276 
L 582.187718 159.718845 
L 581.986676 159.544304 
L 581.986517 160.181798 
L 581.88723 160.007121 
L 581.869235 160.64255 
L 581.8346 160.467742 
L 581.63324 159.772634 
L 581.609194 159.427537 
L 581.368979 159.255597 
L 581.086724 159.885189 
L 581.033617 159.713116 
L 581.02876 160.340696 
L 580.90925 160.168492 
L 580.868006 160.794072 
L 580.772143 160.621741 
L 580.734721 160.449812 
L 580.608204 161.072876 
L 580.586229 160.729169 
L 580.492595 160.387056 
L 580.3152 159.876854 
L 580.118219 159.538681 
L 580.113999 160.155616 
L 580.006989 159.649726 
L 579.989472 159.481869 
L 579.98565 160.095336 
L 579.774098 160.7074 
L 579.546383 160.035743 
L 579.525125 160.644393 
L 579.473132 160.476932 
L 579.248921 159.976825 
L 579.146449 159.315278 
L 579.132675 159.150822 
L 578.987606 159.753621 
L 578.96149 159.424833 
L 578.724858 160.025297 
L 578.664903 159.860967 
L 578.474929 161.750928 
L 578.297295 161.586142 
L 578.240924 161.257665 
L 577.969178 162.860051 
L 577.632781 162.530939 
L 577.495595 161.714461 
L 577.449734 161.552236 
L 577.436437 162.715784 
L 577.356418 162.552998 
L 577.29105 162.390567 
L 577.156411 162.969533 
L 577.152191 164.123696 
L 577.094546 163.797192 
L 576.806399 163.148405 
L 576.731476 164.375452 
L 576.710775 164.213852 
L 576.54588 165.022989 
L 576.450654 164.861559 
L 576.401528 165.424977 
L 576.341574 164.941462 
L 576.189896 165.739847 
L 576.148892 165.579193 
L 576.091246 165.418876 
L 576.090769 165.975785 
L 576.028904 165.815389 
L 575.948885 165.495605 
L 575.92683 165.17716 
L 575.900555 166.283343 
L 575.762493 167.384917 
L 575.757636 167.933984 
L 575.708829 167.612789 
L 575.59513 167.133491 
L 575.59513 166.974386 
L 575.562088 168.064302 
L 575.555957 167.904729 
L 575.234847 167.427979 
L 574.936349 166.483244 
L 574.840884 167.022587 
L 574.798446 166.709463 
L 574.6236 166.087026 
L 574.358941 167.535558 
L 574.311885 167.3799 
L 574.202327 167.069525 
L 574.0946 167.600682 
L 574.072545 167.445584 
L 573.814495 166.982157 
L 573.76091 167.510742 
L 573.641081 167.35651 
L 573.514166 168.409768 
L 573.408509 168.255101 
L 573.264157 169.515417 
L 573.260574 169.206037 
L 573.00746 168.590939 
L 572.966854 168.285207 
L 572.953318 168.803155 
L 572.901087 170.556717 
L 572.746225 172.444509 
L 572.722976 172.952375 
L 572.49534 172.797352 
L 572.473126 172.334084 
L 572.228452 172.026731 
L 572.18052 172.531569 
L 572.102014 172.377998 
L 571.909253 171.766665 
L 571.895956 172.268846 
L 571.871353 171.964267 
L 571.369345 171.207902 
L 571.351909 171.706788 
L 571.308038 171.556048 
L 570.858738 170.955944 
L 570.662872 172.784863 
L 570.487229 172.484475 
L 570.320901 172.185216 
L 570.154812 173.992988 
L 570.097565 173.842787 
L 570.067548 174.329432 
L 569.984345 173.879569 
L 569.774385 173.432213 
L 569.618647 173.283648 
L 569.491175 173.767202 
L 569.354546 173.470276 
L 569.242042 174.433468 
L 569.120222 175.722025 
L 568.976188 175.274933 
L 568.889482 174.830296 
L 568.805163 174.682626 
L 568.798396 175.632181 
L 568.744811 175.484183 
L 568.572751 176.281368 
L 568.57076 176.133319 
L 568.399337 175.838025 
L 568.38405 175.690779 
L 568.351883 176.160777 
L 568.292407 175.866501 
L 568.164775 175.573286 
L 568.057207 176.827645 
L 568.054022 176.680833 
L 567.924559 177.145728 
L 567.749394 176.706013 
L 567.644772 177.484994 
L 567.432106 177.192552 
L 567.269441 176.90115 
L 567.216493 176.610782 
L 567.190616 177.070381 
L 567.010753 176.780485 
L 566.783914 176.203759 
L 566.714087 176.060213 
L 566.710265 176.973104 
L 566.640995 176.685668 
L 566.576104 177.140364 
L 566.528252 176.853391 
L 566.472518 176.710281 
L 566.338596 177.615658 
L 566.300378 177.472258 
L 566.163908 178.08682 
L 566.148462 177.943633 
L 565.947977 177.658004 
L 565.914218 177.515561 
L 565.89081 178.41093 
L 565.802431 178.003221 
L 565.753384 177.861705 
L 565.697013 178.305634 
L 565.637298 178.164102 
L 565.53602 177.600391 
L 565.520096 178.042268 
L 565.450428 178.923763 
L 565.436415 178.782668 
L 565.109811 178.501199 
L 564.930266 177.941123 
L 564.72604 178.37897 
L 564.682965 178.816077 
L 564.618074 178.676146 
L 564.371807 179.407452 
L 564.342189 179.267495 
L 564.201579 178.571233 
L 564.182947 178.86535 
L 564.049901 178.037417 
L 563.948783 179.326697 
L 563.916855 179.051099 
L 563.802679 178.776414 
L 563.763028 179.630446 
L 563.747423 179.492965 
L 563.621303 179.355711 
L 563.58014 180.630051 
L 563.552909 180.492314 
L 563.429099 181.75967 
L 563.337058 181.345712 
L 563.271689 181.070868 
L 563.100107 181.490776 
L 563.087766 181.35346 
L 562.932665 180.942854 
L 562.880274 180.67023 
L 562.869605 181.088076 
L 562.781226 181.505244 
L 562.728916 181.368807 
L 562.630345 180.689929 
L 562.436389 180.419911 
L 562.346179 180.150763 
L 562.330972 179.88248 
L 562.311544 180.29626 
L 562.27245 180.162217 
L 562.136458 179.62819 
L 562.117668 180.040189 
L 562.096091 180.45153 
L 562.030324 179.919132 
L 561.791462 180.889311 
L 561.757305 180.756917 
L 561.69114 180.098073 
L 561.650375 180.775516 
L 561.614545 180.644146 
L 561.547425 181.318187 
L 561.530386 181.186803 
L 561.375206 180.793883 
L 561.375206 180.663317 
L 561.149004 180.402797 
L 560.95035 179.884181 
L 560.943582 180.283525 
L 560.877179 179.896043 
L 560.612599 179.510355 
L 560.558696 180.176117 
L 560.472945 180.047735 
L 560.305582 179.408773 
L 560.176358 180.591411 
L 559.978819 180.984418 
L 559.830168 181.640213 
L 559.811616 181.511987 
L 559.716549 181.256119 
L 559.585971 182.036351 
L 559.56097 181.90831 
L 559.366457 182.29734 
L 559.321949 182.169295 
L 559.27975 181.913788 
L 559.052911 182.819669 
L 558.943353 182.564529 
L 558.940566 182.949848 
L 558.861981 182.695086 
L 558.458384 184.480777 
L 558.323825 185.112683 
L 558.312121 184.98502 
L 558.241497 185.363679 
L 558.214028 185.10855 
L 558.034165 184.34768 
L 557.963144 185.100356 
L 557.908285 184.973831 
L 557.780892 184.847492 
L 557.648483 185.971261 
L 557.604373 185.718046 
L 557.585662 185.591717 
L 557.423714 186.084243 
L 557.417185 185.958108 
L 557.145917 185.706388 
L 557.115502 185.330183 
L 557.112636 185.70061 
L 556.999256 185.575395 
L 556.988746 185.945107 
L 556.973459 185.694866 
L 556.879825 185.570017 
L 556.861353 185.938663 
L 556.787465 185.440366 
L 556.706093 186.174658 
L 556.598924 187.614521 
L 556.557441 187.852102 
L 556.454492 187.35545 
L 556.328214 186.984811 
L 556.25353 187.704944 
L 556.19461 187.458056 
L 556.176138 187.211867 
L 556.148908 187.570501 
L 556.010846 187.20202 
L 555.929076 186.835093 
L 555.923343 187.548862 
L 555.901208 187.304444 
L 555.888389 187.66025 
L 555.887514 187.538134 
L 555.607488 189.645037 
L 555.550161 189.400083 
L 555.400872 189.15581 
L 555.391079 189.033927 
L 555.382719 189.384346 
L 555.106196 189.019234 
L 555.091865 188.897866 
L 555.077135 189.595991 
L 554.959854 190.395781 
L 554.909852 190.274135 
L 554.895441 190.620576 
L 554.876252 190.256175 
L 554.722664 190.13504 
L 554.645113 190.92699 
L 554.593041 190.805894 
L 554.444788 190.564196 
L 554.248921 191.129185 
L 554.212614 191.229665 
L 554.031796 190.389141 
L 553.896122 190.949538 
L 553.895485 190.829975 
L 553.792934 190.591331 
L 553.695876 190.930113 
L 553.680111 190.810884 
L 553.574136 190.454155 
L 553.425644 189.627337 
L 553.419195 189.964053 
L 553.330338 189.377449 
L 553.245701 189.71299 
L 553.05493 189.479148 
L 553.049994 189.245924 
L 553.010422 189.91452 
L 552.877615 189.797852 
L 552.768455 190.347596 
L 552.76336 190.23095 
L 552.479831 189.765898 
L 552.469161 189.650017 
L 552.417408 190.19681 
L 552.403793 190.08095 
L 552.40029 190.741458 
L 552.292802 190.625469 
L 552.064131 190.393946 
L 552.053542 190.163026 
L 551.994543 190.820417 
L 551.96795 191.476097 
L 551.884189 191.360309 
L 551.804329 190.898659 
L 551.732273 190.994973 
L 551.709183 191.320793 
L 551.608622 191.205778 
L 551.561725 190.976195 
L 551.425653 192.043583 
L 551.314025 191.699584 
L 551.304312 191.585212 
L 551.141726 191.356906 
L 551.055418 192.64345 
L 551.012422 192.528986 
L 550.934713 192.414668 
L 550.932404 192.735015 
L 550.838611 192.620712 
L 550.747206 192.94052 
L 550.740996 192.826231 
L 550.479442 192.712088 
L 550.364151 193.031228 
L 550.321634 192.917099 
L 550.302684 192.803115 
L 550.258415 193.121591 
L 549.753143 196.698575 
L 549.733078 196.355734 
L 549.476859 197.480986 
L 549.42638 197.366646 
L 549.269288 197.13839 
L 548.964421 198.754481 
L 548.863303 198.603424 
L 548.78822 198.489518 
L 548.72333 198.871294 
L 548.674761 198.643992 
L 548.645938 198.834224 
L 548.562814 198.494379 
L 548.465518 198.797335 
L 548.170603 198.458385 
L 548.152609 198.345676 
L 548.092814 198.647801 
L 547.993925 199.250949 
L 547.813664 198.912613 
L 547.617956 199.400881 
L 547.598848 199.288284 
L 547.563177 199.175824 
L 547.387455 199.960921 
L 547.376865 199.848394 
L 547.341116 199.736003 
L 547.255444 200.034199 
L 547.242784 199.921831 
L 547.162925 199.6975 
L 547.158864 199.995002 
L 547.140073 199.882928 
L 547.125662 200.179962 
L 547.06316 199.732562 
L 547.037283 199.917172 
L 547.003206 199.80568 
L 546.822467 201.350474 
L 546.741811 201.308643 
L 546.658448 200.974665 
L 546.549527 201.26701 
L 546.548492 201.15584 
L 546.351113 200.712473 
L 546.235265 199.831985 
L 546.126344 200.412873 
L 545.911766 202.147388 
L 545.909696 202.037068 
L 545.847512 202.612332 
L 545.789628 202.281522 
L 545.702603 202.171509 
L 545.657776 202.74461 
L 545.605704 202.63452 
L 545.498535 202.524557 
L 545.36748 203.270963 
L 545.234672 203.051065 
L 545.08411 203.400043 
L 545.080129 203.290337 
L 545.052421 203.857194 
L 545.028614 203.63776 
L 544.982195 203.920499 
L 544.938245 203.591995 
L 544.895966 203.764763 
L 544.893418 203.655539 
L 544.886412 203.937134 
L 544.809419 203.718864 
L 544.689669 203.501094 
L 544.53831 203.175371 
L 544.467767 202.958841 
L 544.304863 204.140579 
L 544.180177 204.032257 
L 544.17946 204.310764 
L 544.093948 204.094297 
L 544.030251 203.770515 
L 543.89609 203.832787 
L 543.746643 203.617836 
L 543.700781 204.724017 
L 543.63812 204.508789 
L 543.445358 203.759288 
L 543.353476 203.820952 
L 543.277597 204.369493 
L 543.276562 204.262857 
L 543.062144 204.049943 
L 542.952347 204.383889 
L 542.868666 204.277661 
L 542.837295 204.550306 
L 542.772166 204.444103 
L 542.723995 204.338017 
L 542.652018 204.882032 
L 542.606077 204.77588 
L 542.432663 204.56393 
L 542.158928 204.246883 
L 542.051679 204.953281 
L 541.945465 206.30041 
L 541.924843 206.194354 
L 541.863137 205.982592 
L 541.833439 206.250862 
L 541.822451 206.145066 
L 541.821097 206.412953 
L 541.599434 206.201531 
L 541.41766 205.731982 
L 541.288754 206.215719 
L 541.359616 205.684101 
L 541.283658 206.110976 
L 541.237638 205.90183 
L 541.233338 206.166945 
L 541.179276 205.958079 
L 541.09026 206.4871 
L 541.063905 206.382664 
L 540.917244 206.070029 
L 540.88452 206.333766 
L 540.832289 205.918147 
L 540.821222 205.711008 
L 540.791842 206.236602 
L 540.791205 206.133028 
L 540.713654 206.029565 
L 540.612138 206.553691 
L 540.507437 207.49472 
L 540.385697 207.237109 
L 540.295964 207.030661 
L 540.261409 207.549542 
L 540.189432 207.137296 
L 540.178126 207.034508 
L 540.137758 207.293122 
L 540.067135 207.809528 
L 539.969281 207.603784 
L 539.871427 207.295983 
L 539.837031 207.348544 
L 539.784243 208.016088 
L 539.624444 207.709254 
L 539.567515 207.607191 
L 539.562897 207.862926 
L 539.490841 207.557137 
L 539.416793 208.322014 
L 539.329131 208.778229 
L 539.347683 208.27065 
L 539.296327 208.676353 
L 539.270132 208.574583 
L 539.148074 208.978968 
L 539.125541 208.775644 
L 539.061447 208.674139 
L 539.026334 209.178667 
L 538.969485 208.874317 
L 538.767408 208.469985 
L 538.598851 209.122133 
L 538.571222 209.62282 
L 538.490646 209.420716 
L 538.430772 209.31982 
L 538.255686 210.611947 
L 538.254014 210.510906 
L 538.019372 210.208402 
L 537.887441 209.906826 
L 537.813234 209.806505 
L 537.589261 211.66539 
L 537.581299 211.909888 
L 537.502873 211.709149 
L 537.385353 212.483183 
L 537.280413 213.353041 
L 537.238692 212.951689 
L 537.235666 212.851602 
L 537.203022 213.093179 
L 537.149119 212.893164 
L 537.083511 212.69355 
L 536.863201 214.136257 
L 536.833104 214.615244 
L 536.768612 213.915812 
L 536.692494 214.39288 
L 536.647509 214.094196 
L 536.512552 213.697327 
L 536.511915 213.935027 
L 536.479429 214.172491 
L 536.374171 214.073382 
L 536.363343 214.0136 
L 536.260075 214.486817 
L 536.190566 214.723076 
L 536.12878 214.624087 
L 536.075355 214.525194 
L 535.930525 215.170478 
L 535.889759 215.071705 
L 535.813801 215.306408 
L 535.750105 215.207665 
L 535.711489 215.109019 
L 535.684338 215.343359 
L 535.672315 215.244743 
L 535.587997 215.146223 
L 535.517453 215.380203 
L 535.479872 215.183319 
L 535.415459 214.986818 
L 535.349294 215.220306 
L 535.268957 215.122134 
L 535.218 214.828187 
L 535.169352 215.098207 
L 535.169352 215.330624 
L 535.033997 215.135122 
L 534.928818 214.939997 
L 534.916317 215.171929 
L 534.914168 215.074443 
L 534.780803 214.879753 
L 534.642343 215.281713 
L 534.572675 215.087573 
L 534.56328 215.318097 
L 534.56328 215.5484 
L 534.526097 215.257504 
L 534.5128 215.487394 
L 534.373384 215.197142 
L 534.349498 215.329993 
L 534.224653 216.086937 
L 534.162071 215.797761 
L 534.053389 215.413475 
L 533.988498 215.030644 
L 533.918671 215.162269 
L 533.907126 215.615839 
L 533.82018 215.329378 
L 533.668981 215.816678 
L 533.661098 215.721366 
L 533.410214 215.281713 
L 533.27884 215.955529 
L 533.214745 215.860687 
L 533.168884 215.67127 
L 533.146669 216.119068 
L 532.981457 216.504833 
L 532.96808 216.410221 
L 532.854621 216.126914 
L 532.83177 216.349456 
L 532.713454 216.826937 
L 532.467028 216.389697 
L 532.403968 216.61068 
L 532.294092 216.423104 
L 532.253326 216.235874 
L 532.23788 216.456419 
L 532.20635 216.269417 
L 532.066616 216.489642 
L 532.050771 216.396212 
L 531.959765 215.930346 
L 531.938904 216.15002 
L 531.855064 215.871351 
L 531.843439 215.997872 
L 531.624005 216.594318 
L 531.575914 216.501649 
L 531.526151 216.316564 
L 531.490242 216.534462 
L 531.479414 216.752162 
L 531.429571 216.290352 
L 531.382913 216.632367 
L 531.261094 216.297205 
L 531.167142 216.113892 
L 531.165549 216.330014 
L 530.985049 217.347137 
L 530.970956 217.163869 
L 530.950096 217.072359 
L 530.945876 217.501028 
L 530.917451 217.40949 
L 530.659799 218.565948 
L 530.4664 218.898536 
L 530.437817 218.807109 
L 530.293544 218.169388 
L 530.221886 218.078608 
L 530.109302 218.289839 
L 530.089078 218.108414 
L 530.056275 218.017821 
L 529.826728 218.559244 
L 529.706024 218.378141 
L 529.664541 219.008089 
L 529.567404 218.826989 
L 529.514695 218.946015 
L 529.489217 218.675043 
L 529.429899 219.301838 
L 529.346298 219.239521 
L 529.093184 219.773365 
L 528.984422 220.305347 
L 528.873033 220.124853 
L 528.871998 220.034724 
L 528.810928 220.861177 
L 528.770083 221.273326 
L 528.698584 221.092697 
L 528.658296 221.0025 
L 528.644521 221.208156 
L 528.572465 221.824053 
L 528.450088 222.028997 
L 528.424768 221.938629 
L 528.362426 222.053006 
L 528.276515 221.782456 
L 528.165205 222.190964 
L 528.103977 222.01079 
L 528.024197 221.651372 
L 528.024118 221.855067 
L 527.767182 223.298219 
L 527.662162 223.051058 
L 527.600297 222.871918 
L 527.58915 223.073441 
L 527.275286 222.738631 
L 527.091043 223.652061 
L 527.075358 223.562806 
L 527.049004 223.762753 
L 526.745729 224.532376 
L 526.743261 224.443352 
L 526.709661 224.265529 
L 526.69294 224.463666 
L 526.692303 224.374821 
L 526.636091 224.572745 
L 526.59023 224.483929 
L 526.505354 224.217927 
L 526.438791 224.326938 
L 526.276843 223.709064 
L 526.165215 224.102987 
L 526.099926 223.839017 
L 526.02763 223.575707 
L 525.844583 224.184962 
L 525.757398 224.097304 
L 525.757398 224.009718 
L 525.671408 224.225643 
L 525.637728 224.050801 
L 525.627378 224.440854 
L 525.626342 224.353452 
L 525.558028 224.655352 
L 525.518934 224.393531 
L 525.442658 224.219344 
L 525.412561 224.413496 
L 525.182139 223.805789 
L 524.992562 224.705346 
L 524.837063 225.511667 
L 524.924964 224.551882 
L 524.797412 225.338628 
L 524.747331 225.53003 
L 524.730053 225.443573 
L 524.649079 225.27087 
L 524.647725 225.461988 
L 524.406156 226.53593 
L 524.381952 226.449556 
L 524.279241 226.363252 
L 524.08218 227.169624 
L 524.053437 227.083517 
L 523.895072 226.82561 
L 523.697294 226.431096 
L 523.656369 226.9932 
L 523.639728 226.907783 
L 523.342823 226.481718 
L 523.324829 226.668543 
L 523.21758 227.142954 
L 523.100139 227.057851 
L 523.079756 227.244001 
L 523.031506 226.988976 
L 522.944242 226.73456 
L 522.855067 227.105935 
L 522.73906 228.216535 
L 522.698851 228.046624 
L 522.659997 228.330562 
L 522.624645 229.066405 
L 522.610313 228.896426 
L 522.42209 229.655306 
L 522.359349 230.020169 
L 522.347963 229.850376 
L 522.295812 229.680848 
L 522.258629 229.862913 
L 522.234822 230.044835 
L 522.192623 229.960095 
L 521.949701 229.45304 
L 521.884173 229.200402 
L 521.859411 229.381803 
L 521.852006 229.744182 
L 521.753197 229.253128 
L 521.628193 228.848785 
L 521.603351 229.02892 
L 521.515689 229.843993 
L 521.4965 229.760538 
L 521.424284 229.510559 
L 521.412978 229.689677 
L 521.283913 230.0475 
L 521.277464 229.964192 
L 521.153495 229.810119 
L 521.054606 230.083654 
L 521.014557 230.000619 
L 520.950383 230.178658 
L 520.941147 230.09565 
L 520.811763 229.847007 
L 520.759054 229.598933 
L 520.72426 229.611443 
L 520.581978 229.376954 
L 520.409997 229.731069 
L 520.330138 230.014289 
L 519.929726 229.302288 
L 519.634493 230.703526 
L 519.624699 230.621788 
L 519.610845 230.796315 
L 519.552324 230.469834 
L 519.524775 230.56259 
L 519.522546 230.481149 
L 519.48393 230.829132 
L 519.442686 230.666295 
L 519.28241 231.462293 
L 519.251915 231.228821 
L 519.211707 231.066716 
L 519.209 231.239196 
L 519.197614 231.583772 
L 519.10828 231.179054 
L 519.105095 231.350981 
L 519.010585 231.189446 
L 518.988849 231.280467 
L 518.875867 231.89478 
L 518.815913 231.904331 
L 518.76607 231.662844 
L 518.655398 232.093632 
L 518.634059 231.772318 
L 518.454913 231.451946 
L 518.379035 231.292113 
L 518.270114 231.631605 
L 518.197101 232.149108 
L 518.123134 231.989349 
L 518.085473 232.158283 
L 517.912935 232.921123 
L 517.826069 232.761325 
L 517.815719 232.929426 
L 517.767628 233.520637 
L 517.453365 234.450077 
L 517.315781 234.370117 
L 517.276926 234.290214 
L 517.276846 234.456669 
L 517.261559 234.376793 
L 517.165776 234.887562 
L 517.245476 234.303719 
L 517.162033 234.807818 
L 517.121108 234.973369 
L 517.082492 234.813991 
L 517.012187 234.495922 
L 517.010515 234.416547 
L 516.939494 234.99726 
L 516.732241 235.660629 
L 516.652143 236.152469 
L 516.542665 235.998351 
L 516.533429 235.919035 
L 516.522202 236.409024 
L 516.478968 236.329675 
L 516.327131 237.064414 
L 516.300618 236.9057 
L 516.272273 237.230387 
L 516.242893 237.071781 
L 516.221395 237.395891 
L 516.1323 237.237392 
L 516.056103 237.079117 
L 516.013347 237.240884 
L 515.937787 237.484932 
L 515.912228 237.247844 
L 515.723607 237.734381 
L 515.707603 237.655459 
L 515.690963 237.576592 
L 515.675914 237.897956 
L 515.63483 237.661515 
L 515.549716 238.223731 
L 515.536419 238.144968 
L 515.395809 237.909012 
L 515.29907 237.751983 
L 514.978119 239.108785 
L 514.890457 238.95174 
L 514.833528 238.794914 
L 514.8059 238.953387 
L 514.535588 239.432724 
L 514.502545 239.354605 
L 514.500396 239.27654 
L 514.422208 239.905178 
L 514.395217 239.827057 
L 514.27706 240.140672 
L 514.203888 240.453855 
L 514.023309 240.06352 
L 513.973785 240.220136 
L 513.853478 240.454177 
L 513.772743 240.376324 
L 513.738267 240.220777 
L 513.67258 240.376484 
L 513.531413 240.919623 
L 512.915547 243.142426 
L 512.902649 242.987217 
L 512.900419 242.909692 
L 512.887202 243.062232 
L 512.869208 242.984733 
L 512.612909 243.742524 
L 512.573736 243.510202 
L 512.454146 243.35558 
L 512.414574 243.507203 
L 512.248963 244.410905 
L 512.152781 244.179078 
L 512.098878 244.252569 
L 512.049593 244.098329 
L 511.974192 244.248843 
L 511.97268 244.171776 
L 511.791861 243.864022 
L 511.705393 243.710452 
L 511.616059 243.934079 
L 511.587714 243.857373 
L 511.472981 243.474607 
L 511.421307 243.774251 
L 511.40809 244.222973 
L 511.345269 244.14645 
L 510.885062 245.104133 
L 510.716744 245.91617 
L 510.672236 245.839645 
L 510.647394 245.758014 
L 510.627648 245.976617 
L 510.567694 246.712302 
L 510.541977 246.635841 
L 510.456464 246.483071 
L 510.410603 246.629849 
L 510.405587 246.477233 
L 510.361397 246.400999 
L 510.358212 246.547613 
L 510.348339 246.471406 
L 510.216726 246.617901 
L 510.1551 246.541721 
L 510.138459 246.611944 
L 510.039332 246.383783 
L 509.966001 246.453994 
L 509.891556 246.226358 
L 509.70604 246.879529 
L 509.695291 246.72789 
L 509.65779 246.652144 
L 509.612804 246.797582 
L 509.557547 246.721863 
L 509.549426 246.867184 
L 509.459773 247.006118 
L 509.438674 246.930478 
L 509.365662 247.07545 
L 509.345518 246.924272 
L 509.281025 246.622502 
L 509.254113 246.911896 
L 509.09519 246.68 
L 508.94837 246.523972 
L 508.735066 246.668142 
L 508.72161 246.593146 
L 508.639203 246.518197 
L 508.473672 247.087468 
L 508.329001 247.012553 
L 508.291181 247.156059 
L 508.244364 246.931537 
L 508.082336 247.218142 
L 508.053116 247.068613 
L 507.910754 246.689729 
L 507.802948 246.466725 
L 507.794508 246.609536 
L 507.700157 246.9631 
L 507.660586 246.88882 
L 507.651509 247.031225 
L 507.358903 247.660753 
L 507.323154 247.512316 
L 507.292022 247.653983 
L 507.181031 248.346157 
L 507.140663 248.487025 
L 507.094643 248.338769 
L 507.054195 248.1907 
L 507.037077 248.331395 
L 506.90849 248.671223 
L 506.873457 248.597293 
L 506.826082 248.737463 
L 506.795269 248.663559 
L 506.746462 248.589701 
L 506.728228 248.729741 
L 506.718515 248.722034 
L 506.632684 249.001594 
L 506.535547 248.706664 
L 506.447407 248.48595 
L 506.439604 248.625454 
L 506.331479 248.33173 
L 506.241906 248.038738 
L 506.191904 248.17799 
L 506.147237 248.595227 
L 506.086168 248.295396 
L 506.053364 248.222432 
L 506.017376 248.361109 
L 505.860523 248.841936 
L 505.842449 248.550307 
L 505.818802 248.477512 
L 505.796906 248.680889 
L 505.794916 248.608144 
L 505.664338 249.086513 
L 505.569589 249.692141 
L 505.569271 249.619421 
L 505.457006 250.021323 
L 505.454697 249.876038 
L 505.143937 249.216482 
L 504.96917 249.480704 
L 504.954918 249.33659 
L 504.939472 249.192652 
L 504.889629 249.528104 
L 504.607852 248.946319 
L 504.607852 248.874818 
L 504.502991 249.280544 
L 504.359196 248.994742 
L 504.319227 249.3995 
L 504.290086 249.3281 
L 504.205131 249.462837 
L 504.170734 249.391461 
L 504.002815 249.240947 
L 503.993977 249.375426 
L 503.822713 250.029442 
L 503.772393 249.816089 
L 503.735608 250.083409 
L 503.558213 250.731964 
L 503.33018 250.439216 
L 503.308125 250.571932 
L 503.215685 250.898738 
L 503.15382 250.747997 
L 503.112099 251.144449 
L 503.095617 251.073719 
L 503.033593 251.266866 
L 502.887091 251.652131 
L 502.887091 251.58146 
L 502.870928 251.440243 
L 502.835895 251.763604 
L 502.806594 251.693046 
L 502.777772 251.824174 
L 502.754921 251.683148 
L 502.685412 251.612698 
L 502.682386 251.743695 
L 502.624741 252.005458 
L 502.563114 251.934996 
L 502.464385 251.794195 
L 502.45706 251.924907 
L 502.440738 252.1861 
L 502.367009 252.175805 
L 502.182767 251.95487 
L 502.058797 252.405019 
L 501.992712 252.324473 
L 501.969145 252.513806 
L 501.966676 252.443751 
L 501.911659 252.303766 
L 501.890957 252.433297 
L 501.811655 252.810666 
L 501.752099 252.74073 
L 501.73928 252.86983 
L 501.729248 252.998855 
L 501.721126 252.789187 
L 501.66165 252.837504 
L 501.570643 253.094822 
L 501.542697 253.351841 
L 501.456547 253.142597 
L 501.384729 252.933717 
L 501.012901 252.565463 
L 500.994747 252.693456 
L 500.929777 252.555026 
L 500.627219 252.199546 
L 500.877387 252.61374 
L 500.624034 252.327239 
L 500.529126 252.582404 
L 500.512087 252.51346 
L 500.479443 252.69936 
L 500.430397 252.424006 
L 500.396717 252.355266 
L 500.371079 252.540875 
L 500.197506 252.403526 
L 500.197028 252.530538 
L 500.068521 253.153654 
L 499.930697 252.947812 
L 499.930061 253.074232 
L 499.874167 252.800258 
L 499.838576 252.858128 
L 499.75394 252.584869 
L 499.723843 252.710996 
L 499.661102 252.963035 
L 499.5482 252.758351 
L 499.419055 252.282114 
L 499.342779 252.339965 
L 499.3005 252.523323 
L 499.248747 252.455471 
L 499.157342 252.252148 
L 499.098105 252.367524 
L 498.992368 253.050275 
L 498.95423 252.982562 
L 498.936236 253.107367 
L 498.932334 253.039676 
L 498.814098 253.345917 
L 498.747694 253.278254 
L 498.71505 253.402729 
L 498.71505 253.527133 
L 498.683839 253.459477 
L 498.378653 253.86615 
L 498.33104 253.731141 
L 498.23024 253.259797 
L 498.163597 253.316276 
L 498.133421 253.439869 
L 498.090585 253.372691 
L 498.031746 253.305551 
L 497.979753 253.429044 
L 497.973782 253.2278 
L 497.931503 253.284155 
L 497.849653 253.016441 
L 497.724888 252.87249 
L 497.796228 253.072819 
L 497.694552 252.995587 
L 497.565487 253.855355 
L 497.557525 253.788528 
L 497.528066 253.721738 
L 497.523607 253.844258 
L 497.372328 254.022295 
L 497.32981 253.955533 
L 497.296449 254.077818 
L 497.242944 254.255415 
L 497.194614 254.121984 
L 497.180442 254.055323 
L 497.144533 254.299298 
L 497.083862 254.664753 
L 497.046281 255.084325 
L 496.966342 254.884266 
L 496.892773 254.618034 
L 496.844682 254.79406 
L 496.692925 255.386874 
L 496.659405 255.187554 
L 496.646506 255.428832 
L 496.586791 255.416585 
L 496.504861 255.765207 
L 496.441722 255.632592 
L 496.370541 255.752714 
L 496.306446 256.285999 
L 496.283595 256.219694 
L 496.189245 256.326469 
L 496.096248 256.1279 
L 496.093222 255.995702 
L 496.034701 256.28782 
L 495.977613 256.46019 
L 495.952373 256.262159 
L 495.916066 256.196221 
L 495.884537 256.315277 
L 495.856271 256.236582 
L 495.783259 256.593042 
L 495.65085 256.461343 
L 495.650771 256.580005 
L 495.534843 257.211227 
L 495.421622 257.118578 
L 495.412148 257.052923 
L 495.38643 257.288653 
L 495.38428 257.223006 
L 495.22265 257.496752 
L 495.196057 257.43119 
L 495.161263 257.365664 
L 495.153301 257.483097 
L 495.110067 257.717774 
L 494.994935 257.652241 
L 494.914837 257.872699 
L 494.92057 257.638482 
L 494.878291 257.741795 
L 494.690387 257.453268 
L 494.828847 257.793369 
L 494.684734 257.57002 
L 494.648745 258.036405 
L 494.598106 258.008457 
L 494.564427 257.943352 
L 494.447703 258.175788 
L 494.349053 258.50965 
L 494.342285 258.379519 
L 494.093232 258.993786 
L 493.933593 259.554874 
L 493.389306 258.68369 
L 493.339543 258.733834 
L 493.285242 258.948364 
L 493.292567 258.719506 
L 493.283092 258.883952 
L 493.19957 258.819573 
L 493.168359 258.869528 
L 492.964132 259.687309 
L 492.92265 259.558771 
L 492.753535 259.3515 
L 492.579405 259.967058 
L 492.489911 259.710825 
L 492.375417 259.327472 
L 492.342534 259.440409 
L 492.206144 259.989107 
L 492.100248 260.59938 
L 492.098417 260.535539 
L 491.975005 260.025994 
L 491.528174 260.698704 
L 491.441945 260.635263 
L 491.427533 260.74662 
L 491.368137 261.080348 
L 491.301255 261.016891 
L 490.951004 261.586948 
L 490.926083 261.46026 
L 490.879744 261.396965 
L 490.859838 261.507531 
L 490.824965 261.728495 
L 490.778068 261.538694 
L 490.675756 261.412321 
L 490.666281 261.522658 
L 490.660946 261.743165 
L 490.585545 261.490661 
L 490.582679 261.600782 
L 490.398198 261.45876 
L 490.332909 261.599642 
L 490.355681 261.379956 
L 490.295169 261.583645 
L 490.112997 261.442147 
L 490.098188 261.488998 
L 490.009649 261.645243 
L 490.008694 261.582556 
L 489.776043 261.300704 
L 489.755819 261.518992 
L 489.675243 261.394122 
L 489.498167 261.844206 
L 489.491319 261.781894 
L 489.25612 261.455082 
L 489.20994 261.71816 
L 489.20357 261.656081 
L 489.051574 261.640258 
L 489.0378 261.964658 
L 488.960966 261.886646 
L 488.913592 261.994584 
L 488.864148 261.87069 
L 488.740099 261.731088 
L 488.724095 261.838849 
L 488.660956 262.161812 
L 488.593199 261.976401 
L 488.502113 261.837083 
L 488.495345 262.051859 
L 488.484835 261.990205 
L 488.449483 261.928582 
L 488.435789 262.035867 
L 488.2822 261.89682 
L 488.267391 262.003954 
L 488.163168 262.37041 
L 488.12272 262.797526 
L 488.056476 262.596601 
L 487.970963 262.731781 
L 488.009818 262.518927 
L 487.967619 262.670415 
L 487.939991 262.60908 
L 487.932188 262.715406 
L 487.835927 263.123541 
L 487.820799 263.335472 
L 487.72828 263.090319 
L 487.669759 262.967922 
L 487.630824 263.073744 
L 487.514339 263.840118 
L 487.450324 263.928255 
L 487.397695 263.744942 
L 487.321816 263.727978 
L 487.299204 263.938015 
L 487.207004 263.755052 
L 487.188372 263.859961 
L 487.088289 264.218109 
L 487.073957 264.157157 
L 486.831592 264.583841 
L 486.788199 264.522992 
L 486.670361 264.21919 
L 486.629515 264.323353 
L 486.625295 264.262671 
L 486.528795 264.080798 
L 486.496788 264.124293 
L 486.432613 264.003229 
L 486.348216 264.418885 
L 486.260314 264.297854 
L 485.985225 265.108868 
L 485.886894 265.297569 
L 485.659258 265.038194 
L 485.649545 265.244182 
L 485.631311 265.449973 
L 485.542136 265.268989 
L 485.528521 265.148477 
L 485.448662 265.764366 
L 485.448184 265.704093 
L 485.392609 266.05338 
L 485.323498 265.993124 
L 485.105975 265.674315 
L 484.975317 266.064346 
L 484.957641 266.046165 
L 484.927784 266.087974 
L 484.769259 265.71072 
L 484.740675 265.812336 
L 484.650146 265.752579 
L 484.5171 265.836178 
L 484.50452 265.776486 
L 484.478246 266.080639 
L 484.433021 265.901644 
L 484.312475 265.883693 
L 484.148616 266.572642 
L 484.126959 266.513057 
L 484.07847 266.613839 
L 484.074251 266.554273 
L 483.923529 266.856306 
L 483.912302 266.677689 
L 483.687055 266.87875 
L 483.607037 267.421243 
L 483.546764 267.064468 
L 483.214427 266.376788 
L 483.206943 266.476662 
L 483.107975 266.558303 
L 483.097624 266.49936 
L 483.032415 266.422372 
L 483.051524 266.540141 
L 482.992843 266.522004 
L 482.84666 266.503893 
L 482.727707 266.74348 
L 482.682004 266.784034 
L 482.577383 266.607744 
L 482.484386 267.103728 
L 482.411055 266.927542 
L 482.139788 266.598298 
L 482.070518 266.795963 
L 481.829506 267.624656 
L 481.821226 267.507634 
L 481.772976 267.390721 
L 481.570819 267.52886 
L 481.550834 267.470452 
L 481.530053 267.412071 
L 481.488491 267.550038 
L 481.464923 267.531447 
L 481.388328 267.473146 
L 481.36484 267.512882 
L 481.198194 268.218032 
L 481.158384 268.140846 
L 481.153925 268.082659 
L 481.079002 268.453111 
L 480.853039 268.162612 
L 480.822385 268.201754 
L 480.805267 268.298873 
L 480.780982 268.240861 
L 480.57572 268.106107 
L 480.554223 268.203093 
L 480.45199 268.435863 
L 480.44992 268.377965 
L 480.412737 268.320093 
L 480.407721 268.416877 
L 480.263209 269.285957 
L 480.220612 268.996552 
L 480.170929 268.823224 
L 480.128412 269.054172 
L 480.127138 268.996448 
L 480.02379 269.32297 
L 479.977849 269.0923 
L 479.768606 268.93875 
L 479.698062 269.034524 
L 479.669478 268.919604 
L 479.646388 268.862182 
L 479.614381 269.05355 
L 479.406332 269.492251 
L 479.394947 269.434881 
L 479.340327 269.377537 
L 479.324721 269.415479 
L 479.262697 269.396102 
L 479.202185 269.586376 
L 479.170337 269.414627 
L 479.067387 269.452467 
L 478.937685 269.869805 
L 478.921204 269.812606 
L 478.81069 269.982415 
L 478.804082 269.925268 
L 478.758459 269.811051 
L 478.733618 270.000209 
L 478.686721 270.378021 
L 478.654475 270.186979 
L 478.611957 270.224234 
L 478.571112 270.110289 
L 478.444913 270.486832 
L 478.387109 270.259113 
L 478.387109 270.202246 
L 478.29459 270.427227 
L 478.065919 270.387622 
L 477.93152 270.6856 
L 477.925468 270.628878 
L 477.883508 270.515508 
L 477.848555 270.645776 
L 477.699505 270.832528 
L 477.669886 270.869179 
L 477.569007 270.736008 
L 477.557064 270.8292 
L 477.4823 270.716116 
L 477.415737 270.80925 
L 477.398459 270.696249 
L 477.208883 270.619986 
L 477.193118 270.712999 
L 477.127112 270.600213 
L 477.114373 270.69317 
L 476.906802 270.411596 
L 476.642939 270.61411 
L 476.535133 270.835834 
L 476.501294 270.779636 
L 476.461245 270.90851 
L 476.453442 270.852345 
L 476.409969 270.832528 
L 476.331145 270.924927 
L 476.106694 270.773231 
L 476.000242 271.341917 
L 475.970304 271.28595 
L 475.948329 271.469671 
L 475.943233 271.413713 
L 475.744261 271.724682 
L 475.682715 271.501065 
L 475.673001 271.445221 
L 475.646726 271.628357 
L 475.634942 271.572521 
L 475.550306 271.846906 
L 475.454761 272.044676 
L 475.476338 271.770835 
L 475.42347 271.933115 
L 475.349423 271.710281 
L 475.296236 271.745781 
L 475.154352 272.109983 
L 474.48737 273.260843 
L 474.414677 273.149621 
L 474.409899 273.094045 
L 474.368974 273.27444 
L 474.155989 273.086948 
L 474.118408 273.177013 
L 473.993165 273.425925 
L 473.751039 273.128114 
L 473.732248 273.217882 
L 473.621576 273.397304 
L 473.617993 273.341995 
L 473.148868 272.969304 
L 473.049501 273.237682 
L 473.036046 273.182594 
L 473.02052 273.12753 
L 472.968448 273.216899 
L 472.681256 274.243646 
L 472.526553 274.179744 
L 472.485708 274.124806 
L 472.456965 274.213419 
L 472.442633 274.301996 
L 472.375592 274.19216 
L 472.279092 274.546036 
L 472.159821 274.414878 
L 472.036807 274.174535 
L 471.994369 274.262767 
L 471.785206 274.560593 
L 471.779553 274.648633 
L 471.728914 274.539227 
L 471.718404 274.627216 
L 471.567443 274.605827 
L 471.458044 274.781593 
L 471.375557 274.990296 
L 471.342356 274.935647 
L 471.29952 275.056379 
L 471.271812 275.034779 
L 471.218705 275.20989 
L 471.098 274.99166 
L 471.058667 275.16657 
L 470.945925 275.374128 
L 470.916146 275.352397 
L 470.88191 275.297923 
L 470.863756 275.472342 
L 470.616216 275.918203 
L 470.370347 275.689373 
L 470.362783 275.776087 
L 470.250996 276.014016 
L 470.155133 276.13276 
L 470.123921 276.11073 
L 470.073442 276.002346 
L 470.018424 276.088727 
L 469.921048 276.293473 
L 469.913882 276.23931 
L 469.828051 276.357573 
L 469.655115 276.281374 
L 469.653443 276.367467 
L 469.495157 276.892617 
L 469.107484 277.392769 
L 469.029297 277.680156 
L 468.938848 277.46423 
L 468.870454 277.611966 
L 468.765593 277.89831 
L 468.622595 278.353696 
L 468.551255 278.245876 
L 468.484214 278.138144 
L 468.465503 278.22288 
L 468.329671 278.646043 
L 468.274971 278.538324 
L 468.223696 278.569008 
L 467.988178 278.974776 
L 467.979897 278.921024 
L 467.937937 278.951454 
L 467.868189 278.820827 
L 467.851867 278.904894 
L 467.787375 278.744039 
L 467.74008 278.63691 
L 467.71906 278.804882 
L 467.555678 279.398348 
L 467.547955 279.344813 
L 467.395402 279.488493 
L 467.387281 279.435005 
L 467.378921 279.381538 
L 467.346276 279.578421 
L 467.069993 280.172993 
L 467.03703 280.397903 
L 466.971343 280.214116 
L 466.93416 280.160857 
L 466.90064 280.243617 
L 466.68025 280.662226 
L 466.536933 280.502626 
L 466.511534 280.667517 
L 466.415352 280.566583 
L 466.383822 280.513508 
L 466.369889 280.595804 
L 466.345047 280.542744 
L 465.960957 281.805959 
L 465.852116 281.757076 
L 465.835475 281.70409 
L 465.819551 281.785648 
L 465.546691 282.058565 
L 465.52177 281.981086 
L 465.487533 281.928171 
L 465.445891 281.956608 
L 465.215867 282.391013 
L 465.192459 282.28525 
L 465.170324 282.179571 
L 465.136167 282.341699 
L 465.094207 282.317086 
L 464.962674 282.106075 
L 464.937275 282.24342 
L 464.817764 282.622619 
L 464.774849 282.545305 
L 464.746106 282.440102 
L 464.690212 282.601242 
L 464.659319 282.576611 
L 464.530174 282.845777 
L 464.49116 282.740703 
L 464.433117 282.821042 
L 464.315915 283.06187 
L 464.269974 282.984545 
L 464.237887 283.144846 
L 464.229925 283.092363 
L 463.889069 282.833315 
L 463.871393 282.993271 
L 463.84894 283.073202 
L 463.661195 282.943897 
L 463.634204 283.023745 
L 463.186099 283.718117 
L 463.171528 283.665898 
L 463.051699 283.824699 
L 462.930118 284.037493 
L 462.771196 284.433295 
L 462.66952 284.591403 
L 462.620553 284.539177 
L 462.585202 284.486972 
L 462.344509 284.777255 
L 462.249282 285.013671 
L 462.127702 284.909318 
L 462.118068 284.988053 
L 461.858425 285.486164 
L 461.556185 286.086975 
L 461.446627 286.060874 
L 461.430066 286.138968 
L 461.425289 286.086875 
L 461.189214 286.346841 
L 461.12488 286.52847 
L 461.080531 286.502186 
L 461.055053 286.65776 
L 460.980767 286.501692 
L 460.86683 286.605125 
L 460.855285 286.553152 
L 460.812767 286.578853 
L 460.669211 286.319358 
L 460.583062 286.44838 
L 460.504317 286.396565 
L 460.500177 286.474062 
L 460.433853 286.706377 
L 460.382657 286.654562 
L 460.327559 286.499235 
L 460.266012 286.576595 
L 459.91608 287.372521 
L 459.892671 287.320796 
L 459.841634 287.26909 
L 459.464472 287.701904 
L 459.329515 287.880089 
L 459.182615 288.210891 
L 459.093917 288.159261 
L 459.080461 288.235656 
L 459.04503 288.361429 
L 459.071544 288.208801 
L 458.993516 288.258266 
L 458.957129 288.206714 
L 458.916124 288.307658 
L 458.648281 288.685819 
L 458.626146 288.634322 
L 458.432588 288.531386 
L 458.415868 288.683294 
L 458.226052 289.138339 
L 458.080267 289.08397 
L 457.77524 289.733 
L 457.72277 289.681634 
L 457.494498 289.602939 
L 457.374908 289.852506 
L 457.286211 289.698683 
L 457.051091 289.43949 
L 457.004831 289.514532 
L 456.966136 289.412355 
L 456.911516 289.310253 
L 456.863584 289.409186 
L 456.828074 289.508009 
L 456.775842 289.406023 
L 456.737226 289.480891 
L 456.670902 289.378971 
L 456.537219 289.277127 
L 456.489925 289.348846 
L 456.519305 289.250171 
L 456.44048 289.271062 
L 456.323995 289.142646 
L 456.401944 289.294944 
L 456.322483 289.217286 
L 456.29987 289.366485 
L 456.242464 289.163629 
L 456.211253 289.312683 
L 455.763705 290.520337 
L 455.664179 290.267102 
L 455.646026 290.216511 
L 455.614815 290.364337 
L 455.56752 290.313755 
L 455.564892 290.387624 
L 455.465128 290.185465 
L 455.459554 290.25929 
L 455.327862 290.379599 
L 455.322527 290.329125 
L 455.230008 290.251506 
L 455.040909 290.445179 
L 455.016545 290.344428 
L 454.944409 290.24375 
L 454.893929 290.266966 
L 454.779116 290.363637 
L 454.726567 290.313349 
L 454.724337 290.26308 
L 454.642886 290.433042 
L 454.531735 290.699018 
L 454.491368 290.648788 
L 454.200832 290.397911 
L 454.187137 290.471096 
L 454.137374 290.270704 
L 453.731468 290.458952 
L 453.715146 290.309044 
L 453.655033 290.600688 
L 453.57581 290.841947 
L 453.5317 290.814796 
L 453.499215 290.764879 
L 453.472383 290.837578 
L 453.394116 290.932984 
L 453.331614 290.883091 
L 453.292042 290.633895 
L 453.242438 290.924103 
L 453.219667 290.874302 
L 453.198886 290.946784 
L 453.137817 290.797474 
L 453.092592 290.82018 
L 453.043705 290.571754 
L 452.949275 290.811528 
L 452.889241 291.02831 
L 452.861852 290.929043 
L 452.732548 290.852464 
L 452.72793 290.924628 
L 452.625936 291.357066 
L 452.594486 291.42905 
L 452.528799 291.37946 
L 452.378873 291.203708 
L 452.33341 291.419355 
L 452.225922 291.369855 
L 452.074245 291.118054 
L 451.963094 291.261517 
L 451.942074 291.185178 
L 451.852103 291.350749 
L 451.841115 291.252159 
L 451.784824 291.323727 
L 451.668657 291.296734 
L 451.51698 291.412697 
L 451.51061 291.363478 
L 451.509097 291.314277 
L 451.43712 291.62191 
L 451.389189 291.835698 
L 451.321591 291.688157 
L 451.295635 291.639011 
L 451.276446 291.710208 
L 450.678893 292.784782 
L 450.443137 292.729769 
L 450.319327 293.238309 
L 450.083172 293.751144 
L 450.058728 293.653146 
L 450.047422 293.604172 
L 449.986433 293.81442 
L 449.511814 293.98948 
L 449.259974 293.83598 
L 449.110128 294.205577 
L 448.881935 294.50475 
L 448.854148 294.713253 
L 448.788302 294.705685 
L 448.733761 294.913794 
L 448.645144 294.759864 
L 448.560348 294.585772 
L 448.637739 294.780414 
L 448.531923 294.60636 
L 448.344815 294.785727 
L 448.335101 294.688572 
L 448.296565 294.64002 
L 448.293141 294.778136 
L 448.20731 294.867607 
L 448.019803 295.046272 
L 447.886996 295.018123 
L 447.723933 295.147892 
L 447.704506 295.051013 
L 447.653867 295.11974 
L 447.487062 295.325777 
L 447.468112 295.463018 
L 447.384112 295.366164 
L 447.296609 295.124319 
L 447.217227 295.076 
L 447.184742 295.144557 
L 447.045645 295.233288 
L 446.738708 295.587302 
L 446.617843 295.996646 
L 446.417677 296.240551 
L 446.405893 296.144043 
L 446.323645 296.095814 
L 446.318948 296.163823 
L 446.148002 296.387399 
L 446.1023 296.290989 
L 446.043699 296.194644 
L 445.995847 296.262521 
L 445.878964 296.398206 
L 445.832466 296.253781 
L 445.823548 296.205673 
L 445.784852 296.360884 
L 445.783977 296.312798 
L 445.6952 296.264728 
L 445.686203 296.332443 
L 445.466688 296.535451 
L 445.465574 296.603074 
L 445.377195 296.314898 
L 445.13682 296.238601 
L 445.114606 296.306148 
L 445.032836 296.441175 
L 444.864199 296.57611 
L 444.725022 296.749809 
L 444.493724 296.721305 
L 444.318081 296.990393 
L 444.272379 296.798858 
L 444.052387 296.694151 
L 444.051512 296.761292 
L 443.93216 297.048866 
L 443.931523 296.953337 
L 443.813127 296.829453 
L 443.787091 296.896413 
L 443.741628 297.030265 
L 443.650622 296.934902 
L 443.39289 297.345417 
L 443.384928 297.412088 
L 443.382539 297.364462 
L 443.232056 297.288318 
L 443.211036 297.354932 
L 443.209444 297.421523 
L 443.184204 297.326396 
L 443.182293 297.392959 
L 443.066604 297.29789 
L 443.036189 297.430936 
L 442.788171 297.819652 
L 442.713089 297.677215 
L 442.700031 297.629768 
L 442.642067 297.828572 
L 442.365624 298.460886 
L 442.336802 298.526862 
L 442.296355 298.431985 
L 442.243885 298.38457 
L 442.197545 298.450514 
L 442.079229 298.714071 
L 442.037826 298.845719 
L 441.947616 298.750893 
L 441.931135 298.703504 
L 441.850081 298.769286 
L 441.847852 298.835046 
L 441.796178 298.645622 
L 441.745778 298.72973 
L 441.687973 298.540595 
L 441.672368 298.606262 
L 441.415034 298.839762 
L 441.410097 298.792531 
L 440.80928 298.619594 
L 440.496212 299.094815 
L 440.483473 299.047759 
L 440.317145 299.243246 
L 440.101692 299.297412 
L 440.063792 299.2504 
L 440.02223 299.315444 
L 440.021434 299.380465 
L 439.815615 299.286477 
L 439.798815 299.351471 
L 439.66975 299.629136 
L 439.58782 299.441334 
L 439.555813 299.506186 
L 439.206039 299.801003 
L 439.198714 299.754101 
L 439.098313 299.707215 
L 439.091943 299.771907 
L 439.07156 299.836577 
L 439.007943 299.7897 
L 438.885805 299.695993 
L 438.871473 299.760634 
L 438.630621 300.165674 
L 438.593677 299.978411 
L 438.545745 299.884871 
L 438.482208 299.967 
L 438.414371 300.113412 
L 438.390804 300.019965 
L 438.359115 299.973265 
L 438.336104 300.101909 
L 437.994691 300.329757 
L 437.9509 300.189777 
L 437.826134 300.096534 
L 437.801133 300.1607 
L 437.785687 300.224845 
L 437.724936 300.17824 
L 437.530742 300.51605 
L 437.523815 300.644018 
L 437.022683 300.951444 
L 436.957633 301.270234 
L 436.921485 301.240768 
L 436.744966 301.529344 
L 436.739313 301.4828 
L 436.631984 301.389756 
L 436.622828 301.453288 
L 436.615582 301.580292 
L 436.525611 301.504277 
L 436.468921 301.631142 
L 436.406737 301.538215 
L 436.031724 302.174961 
L 435.998682 302.082143 
L 435.865556 302.098869 
L 435.735217 302.400956 
L 435.729962 302.354608 
L 435.534573 302.261955 
L 435.533697 302.32489 
L 435.269755 302.705165 
L 435.238464 302.658894 
L 435.069589 302.784315 
L 435.047534 302.691806 
L 434.980971 302.553154 
L 434.766951 302.368491 
L 434.757157 302.493785 
L 434.298941 303.230139 
L 434.272746 303.184012 
L 434.201565 303.24634 
L 434.098456 303.433205 
L 434.05769 303.340975 
L 433.819545 303.264976 
L 433.788413 303.327192 
L 433.757998 303.281138 
L 433.673839 303.189074 
L 433.667231 303.313431 
L 433.520808 303.639999 
L 433.493499 303.547982 
L 433.328206 303.51804 
L 433.325977 303.580039 
L 433.283141 303.703977 
L 433.219205 303.612056 
L 433.04619 303.813728 
L 433.001045 303.937416 
L 432.951999 303.845552 
L 432.742119 304.170191 
L 432.674839 304.140069 
L 432.657084 304.201735 
L 432.626589 304.325008 
L 432.551348 304.248975 
L 432.385578 304.44932 
L 432.259697 304.71077 
L 432.195444 304.894916 
L 432.09966 305.033029 
L 431.92967 305.293396 
L 431.907933 305.201726 
L 431.850527 305.110114 
L 431.790493 305.232444 
L 431.667798 305.431076 
L 431.192463 306.283243 
L 431.124865 306.191722 
L 431.107985 306.252441 
L 430.573094 306.539717 
L 430.535831 306.494002 
L 430.526834 306.55456 
L 430.275631 306.644718 
L 430.275233 306.599037 
L 430.155404 306.507716 
L 430.134782 306.628641 
L 430.118778 306.689075 
L 430.09545 306.597798 
L 430.012087 306.658209 
L 429.95062 306.718601 
L 429.920364 306.627371 
L 429.876891 306.581778 
L 429.824501 306.642144 
L 429.815503 306.702491 
L 429.768687 306.656908 
L 429.654909 306.671662 
L 429.308081 307.091637 
L 429.206008 307.01521 
L 429.067707 307.164463 
L 429.06484 307.118998 
L 429.057276 307.073547 
L 429.023676 307.19353 
L 428.773906 307.433273 
L 428.752409 307.387823 
L 428.474294 307.26604 
L 428.468243 307.3259 
L 428.423018 307.445565 
L 428.20868 307.713325 
L 427.962652 308.099556 
L 427.838762 308.023038 
L 427.415419 308.303271 
L 427.338506 308.257973 
L 427.328394 308.31735 
L 426.623274 309.079832 
L 426.517697 309.315713 
L 426.303517 309.193816 
L 426.292689 309.311595 
L 426.267449 309.429302 
L 426.202957 309.39778 
L 426.020466 309.542581 
L 426.015132 309.497446 
L 425.930336 309.46594 
L 425.806366 309.538232 
L 425.676824 309.551811 
L 425.572839 309.624009 
L 425.173303 309.705141 
L 425.14456 309.660146 
L 425.123142 309.777105 
L 425.095673 309.835558 
L 425.032295 309.79057 
L 424.996386 309.700637 
L 424.960158 309.817477 
L 424.926399 310.050944 
L 424.843753 309.96104 
L 424.686502 310.046082 
L 424.664527 310.001171 
L 424.500827 310.014532 
L 424.267937 310.04123 
L 424.263159 309.996368 
L 424.102087 309.861863 
L 423.950569 310.049712 
L 423.772219 309.928696 
L 423.752871 309.98679 
L 423.436857 310.000113 
L 423.13804 310.535143 
L 422.615411 310.792663 
L 422.559756 310.908191 
L 422.51907 310.863455 
L 421.672384 311.631711 
L 421.655823 311.587034 
L 421.586314 311.70184 
L 421.517761 311.612518 
L 421.517442 311.669892 
L 421.073557 312.121294 
L 420.975544 312.374771 
L 420.944492 312.431826 
L 420.877133 312.387229 
L 420.796876 312.298076 
L 420.706427 312.355108 
L 420.702286 312.31055 
L 420.578874 312.278482 
L 420.55467 312.335474 
L 420.546708 312.449408 
L 420.480065 312.417307 
L 420.171774 312.385234 
L 420.159911 312.442134 
L 420.023043 312.47932 
L 419.598824 312.937932 
L 419.142757 312.772668 
L 419.022928 312.651983 
L 418.652931 312.789573 
L 418.37187 312.95901 
L 418.36566 313.015456 
L 418.302282 312.92692 
L 418.265418 312.983345 
L 417.998131 313.164623 
L 417.970184 313.03193 
L 417.717628 312.943533 
L 417.446201 313.136661 
L 417.375896 313.0925 
L 417.353682 313.148743 
L 417.088227 313.38555 
L 417.067127 313.341404 
L 417.043878 313.453668 
L 416.881213 313.465636 
L 416.356274 313.84929 
L 416.199024 313.961108 
L 415.781891 314.30785 
L 415.741683 314.263757 
L 415.459268 314.187314 
L 415.354328 314.354501 
L 415.337767 314.310452 
L 415.160771 314.477486 
L 415.052566 314.655924 
L 415.052327 314.611889 
L 415.022151 314.567866 
L 414.982182 314.623442 
L 414.502547 314.946865 
L 414.429455 314.858928 
L 414.395298 314.969719 
L 414.231518 315.213793 
L 414.194415 315.169856 
L 413.906188 315.049499 
L 413.826568 315.325574 
L 413.744479 315.304271 
L 413.721946 315.260422 
L 412.399527 315.394329 
L 412.293393 315.361808 
L 412.2668 315.416778 
L 412.175395 315.482929 
L 411.777531 315.549023 
L 411.346465 315.516483 
L 410.991516 315.692158 
L 410.8271 315.823898 
L 410.76611 315.791304 
L 410.279071 316.054042 
L 410.279071 316.010434 
L 410.050878 316.02142 
L 409.752221 315.999809 
L 409.639717 316.163352 
L 409.622201 316.217835 
L 409.588999 316.174278 
L 409.454281 316.185198 
L 409.175927 316.576803 
L 409.077198 316.53327 
L 409.064458 316.58759 
L 408.727822 316.826135 
L 408.72615 316.782628 
L 408.434978 316.804044 
L 408.325022 316.977164 
L 408.082816 316.987806 
L 407.468224 317.267396 
L 407.427618 317.321325 
L 407.417347 317.277928 
L 407.26137 317.288453 
L 407.200938 317.450092 
L 407.132384 317.406713 
L 407.124183 317.363347 
L 406.751559 317.394801 
L 406.625838 317.318665 
L 406.237687 317.544096 
L 406.196922 317.651476 
L 406.127333 317.564921 
L 405.980274 317.43518 
L 405.973108 317.48884 
L 405.665852 317.402404 
L 405.49634 317.423279 
L 405.3117 317.347386 
L 405.310426 317.400975 
L 405.031594 317.592764 
L 404.902211 317.570384 
L 404.74918 317.677255 
L 404.747349 317.63417 
L 404.465253 317.601444 
L 404.366045 317.654837 
L 404.360154 317.611785 
L 404.285071 317.568746 
L 403.966111 317.782156 
L 403.830438 317.995326 
L 403.726294 317.90926 
L 403.724701 317.962512 
L 403.656307 318.015748 
L 403.650973 317.972731 
L 403.546431 317.929725 
L 403.514105 318.036148 
L 403.297377 318.046339 
L 403.150079 318.056525 
L 403.007081 318.066704 
L 402.537558 318.076878 
L 401.665712 318.319572 
L 401.549147 318.276645 
L 401.542857 318.329658 
L 401.348981 318.339737 
L 401.343647 318.296832 
L 401.340223 318.253938 
L 401.312754 318.306916 
L 400.054987 318.588663 
L 399.75848 318.598638 
L 399.614605 318.704172 
L 399.584668 318.661365 
L 399.347876 318.648428 
L 398.823654 318.711047 
L 398.809481 318.668305 
L 398.75932 318.720966 
L 398.601035 318.602754 
L 398.588932 318.655381 
L 398.24107 318.918292 
L 398.224748 318.97083 
L 397.883255 318.980658 
L 397.866614 319.033165 
L 397.795433 318.99048 
L 397.422729 319.14791 
L 397.323283 319.019913 
L 397.025581 319.239335 
L 396.94397 319.196699 
L 396.103256 319.320833 
L 395.012852 319.307338 
L 394.69429 319.411839 
L 394.470078 319.4215 
L 394.325248 319.535535 
L 394.210435 319.545154 
L 394.190848 319.597306 
L 393.608105 319.626083 
L 393.236436 319.550683 
L 392.435851 319.716405 
L 392.001918 319.65061 
L 391.99937 319.702588 
L 391.910434 319.867929 
L 391.336927 320.075464 
L 391.127047 320.084889 
L 391.115422 320.042477 
L 390.897739 320.051906 
L 390.151376 320.423628 
L 389.683366 320.442243 
L 389.468231 320.451543 
L 389.09481 320.573357 
L 388.129888 320.737301 
L 388.118024 320.694969 
L 388.073437 320.746503 
L 387.802488 320.7557 
L 387.069102 320.919317 
L 386.149006 320.979888 
L 385.929174 320.998123 
L 385.406146 320.829093 
L 384.647998 320.796027 
L 384.350854 320.805183 
L 383.868831 320.814335 
L 383.498277 320.935216 
L 381.744075 321.158317 
L 381.164755 321.269685 
L 377.601096 321.671825 
L 376.240061 321.680694 
L 375.949286 321.782593 
L 375.731603 321.698417 
L 373.280642 321.758183 
L 371.993654 321.632032 
L 371.401993 321.590005 
L 371.401993 321.590005 
" clip-path="url(#pec6e374273)" style="fill: none; stroke: #ff7f0e; stroke-width: 1.5; stroke-linecap: square"/>
   </g>
   <g id="patch_3">
    <path d="M 75.225 354.15875 
L 75.225 13.27875 
" style="fill: none; stroke: #000000; stroke-width: 0.8; stroke-linejoin: miter; stroke-linecap: square"/>
   </g>
   <g id="patch_4">
    <path d="M 75.225 354.15875 
L 693.575 354.15875 
" style="fill: none; stroke: #000000; stroke-width: 0.8; stroke-linejoin: miter; stroke-linecap: square"/>
   </g>
   <g id="legend_1">
    <g id="line2d_20">
     <path d="M 262.42625 34.23625 
L 278.42625 34.23625 
L 294.42625 34.23625 
" style="fill: none; stroke: #1f77b4; stroke-width: 1.5; stroke-linecap: square"/>
    </g>
    <g id="text_14">
     <text style="font: 16px 'DejaVu Sans', 'Bitstream Vera Sans', 'Computer Modern Sans Serif', 'Lucida Grande', 'Verdana', 'Geneva', 'Lucid', 'Arial', 'Helvetica', 'Avant Garde', sans-serif; text-anchor: start" x="307.22625" y="39.83625" transform="rotate(-0 307.22625 39.83625)">Cumulative Recall 4J040</text>
    </g>
    <g id="line2d_21">
     <path d="M 262.42625 57.72125 
L 278.42625 57.72125 
L 294.42625 57.72125 
" style="fill: none; stroke: #ff7f0e; stroke-width: 1.5; stroke-linecap: square"/>
    </g>
    <g id="text_15">
     <text style="font: 16px 'DejaVu Sans', 'Bitstream Vera Sans', 'Computer Modern Sans Serif', 'Lucida Grande', 'Verdana', 'Geneva', 'Lucid', 'Arial', 'Helvetica', 'Avant Garde', sans-serif; text-anchor: start" x="307.22625" y="63.32125" transform="rotate(-0 307.22625 63.32125)">Cumulative Recall 4F100</text>
    </g>
   </g>
  </g>
 </g>
 <defs>
  <clipPath id="pec6e374273">
   <rect x="75.225" y="13.27875" width="618.35" height="340.88"/>
  </clipPath>
 </defs>
</svg>
